<svg width="29" height="31" viewBox="0 0 29 31" fill="none" xmlns="http://www.w3.org/2000/svg">
<g filter="url(#filter0_d_2_248)">
<path d="M10.1373 4.72839C9.9758 4.46797 9.80626 4.22482 9.6378 4.00343C10.7923 3.18607 12.2133 2.70395 13.75 2.70395C15.07 2.70395 16.3047 3.05969 17.3584 3.67809C17.3432 3.76486 17.3217 3.86316 17.2919 3.97258C17.1863 4.36119 17.0201 4.73208 16.8788 4.94858C16.8301 5.02324 16.6298 5.21391 16.2664 5.47752C16.1044 5.59505 15.9245 5.70297 15.7103 5.82763L15.636 5.87079C15.4485 5.97957 15.2339 6.10404 15.0271 6.24205C14.5391 6.56759 14.0309 7.00762 13.6891 7.71915C13.4419 8.23376 13.4589 8.73497 13.5682 9.13695C13.6039 9.26817 13.6235 9.40028 13.6238 9.51635C13.6239 9.55241 13.6094 9.61007 13.5266 9.67741C13.4376 9.74985 13.3122 9.79358 13.1995 9.79234C12.1225 9.78047 11.273 8.91192 11.1497 7.52632C11.056 6.47327 10.6141 5.49728 10.1373 4.72839Z" fill="#20C997"/>
<path d="M18.4017 13.91C18.6662 13.9073 18.9143 13.8904 19.1469 13.8606C18.2693 14.8939 17.0846 15.671 15.7291 16.0593C15.6826 15.6879 15.7131 15.2417 15.9379 14.8293C16.1298 14.4772 16.6157 14.2126 17.2716 14.0556C17.5729 13.9835 17.8594 13.9465 18.0722 13.9279C18.1777 13.9187 18.2625 13.9142 18.319 13.912C18.3472 13.911 18.3681 13.9105 18.3808 13.9102L18.3929 13.9101L18.4017 13.91Z" fill="#20C997"/>
<path d="M6.75 9.51974C6.75 7.84561 7.3699 6.31246 8.39838 5.12602C8.49956 5.26577 8.60097 5.41563 8.69913 5.57391C9.10056 6.22126 9.41238 6.95278 9.47597 7.66752C9.64674 9.58671 10.9575 11.4035 13.1805 11.428C14.1423 11.4386 15.3069 10.7348 15.3038 9.51228C15.3031 9.23234 15.2579 8.95956 15.1923 8.71829C15.1607 8.60215 15.1652 8.50729 15.2109 8.41215C15.3814 8.05713 15.6331 7.82063 15.9766 7.59149C16.1366 7.48476 16.3029 7.38821 16.4952 7.2765L16.5722 7.23172C16.7875 7.10642 17.033 6.96132 17.2702 6.78923C17.615 6.53907 18.0607 6.18773 18.2968 5.8258C18.4838 5.53931 18.657 5.17195 18.7912 4.79095C20.0041 6.01654 20.75 7.68332 20.75 9.51974C20.75 10.0381 20.6906 10.5429 20.578 11.028C20.5106 11.2224 20.4266 11.404 20.2753 11.5952C20.0381 11.8948 19.5631 12.2623 18.3842 12.2743L18.3782 12.2743L18.3495 12.2747C18.3258 12.2752 18.2932 12.276 18.2527 12.2775C18.1718 12.2807 18.0587 12.2867 17.9221 12.2987C17.6508 12.3224 17.2764 12.37 16.8706 12.4671C16.1124 12.6486 14.9998 13.0609 14.4539 14.0625C14.0231 14.8529 13.9746 15.6643 14.0716 16.3285C13.965 16.3332 13.8578 16.3355 13.75 16.3355C9.88401 16.3355 6.75 13.284 6.75 9.51974Z" fill="#20C997"/>
<path fill-rule="evenodd" clip-rule="evenodd" d="M19.7535 1.24325C20.0297 0.942725 20.5039 0.91715 20.8125 1.18613C23.0746 3.15749 24.5 6.02464 24.5 9.21497C24.5 14.815 20.1112 19.4169 14.5 19.9378V20.4737H15.75C16.1642 20.4737 16.5 20.8006 16.5 21.204C16.5 21.6073 16.1642 21.9342 15.75 21.9342H11.75C11.3358 21.9342 11 21.6073 11 21.204C11 20.8006 11.3358 20.4737 11.75 20.4737H13V19.9786C9.89923 19.8612 7.12537 18.5006 5.19116 16.3964C4.91491 16.0959 4.94118 15.6342 5.24982 15.3652C5.55847 15.0963 6.03261 15.1218 6.30886 15.4224C8.06098 17.3285 10.6048 18.5263 13.437 18.5263C18.7185 18.5263 23 14.3575 23 9.21497C23 6.45733 21.7698 3.98043 19.8122 2.27441C19.5035 2.00544 19.4772 1.54377 19.7535 1.24325Z" fill="#20C997"/>
<path d="M16.5722 7.23172C16.7875 7.10642 17.033 6.96132 17.2702 6.78923C17.615 6.53907 18.0607 6.18773 18.2968 5.8258C18.4838 5.53931 18.657 5.17195 18.7912 4.79095C20.0041 6.01654 20.75 7.68332 20.75 9.51974C20.75 10.0381 20.6906 10.5429 20.578 11.028C20.5106 11.2224 20.4266 11.404 20.2753 11.5952C20.0381 11.8948 19.5631 12.2623 18.3842 12.2743L18.3782 12.2743L18.3495 12.2747C18.3258 12.2752 18.2932 12.276 18.2527 12.2775C18.1718 12.2807 18.0587 12.2867 17.9221 12.2987C17.6508 12.3224 17.2764 12.37 16.8706 12.4671C16.1124 12.6486 14.9998 13.0609 14.4539 14.0625C14.0231 14.8529 13.9746 15.6643 14.0716 16.3285C13.965 16.3332 13.8578 16.3355 13.75 16.3355C9.88401 16.3355 6.75 13.284 6.75 9.51974C6.75 7.84561 7.3699 6.31246 8.39838 5.12602C8.49956 5.26577 8.60097 5.41563 8.69913 5.57391C9.10056 6.22126 9.41238 6.95278 9.47597 7.66752C9.64674 9.58671 10.9575 11.4035 13.1805 11.428C14.1423 11.4386 15.3069 10.7348 15.3038 9.51228C15.3031 9.23234 15.2579 8.95956 15.1923 8.71829C15.1607 8.60215 15.1652 8.50729 15.2109 8.41215C15.3814 8.05713 15.6331 7.82063 15.9766 7.59149C16.1366 7.48476 16.3029 7.38821 16.4952 7.2765M16.5722 7.23172C16.5461 7.24694 16.5204 7.26185 16.4952 7.2765M16.5722 7.23172L16.4952 7.2765M15.636 5.87079C15.4485 5.97957 15.2339 6.10404 15.0271 6.24205C14.5391 6.56759 14.0309 7.00762 13.6891 7.71915C13.4419 8.23376 13.4589 8.73497 13.5682 9.13695C13.6039 9.26817 13.6235 9.40028 13.6238 9.51635C13.6239 9.55241 13.6094 9.61007 13.5266 9.67741C13.4376 9.74985 13.3122 9.79358 13.1995 9.79234C12.1225 9.78047 11.273 8.91192 11.1497 7.52632C11.056 6.47327 10.6141 5.49728 10.1373 4.72839C9.9758 4.46797 9.80626 4.22482 9.6378 4.00343C10.7923 3.18607 12.2133 2.70395 13.75 2.70395C15.07 2.70395 16.3047 3.05969 17.3584 3.67809C17.3432 3.76486 17.3217 3.86316 17.2919 3.97258C17.1863 4.36119 17.0201 4.73208 16.8788 4.94858C16.8301 5.02324 16.6298 5.21391 16.2664 5.47752C16.1044 5.59505 15.9245 5.70297 15.7103 5.82763M15.636 5.87079C15.6613 5.85612 15.6861 5.84173 15.7103 5.82763M15.636 5.87079L15.7103 5.82763M18.4017 13.91C18.6662 13.9073 18.9143 13.8904 19.1469 13.8606C18.2693 14.8939 17.0846 15.671 15.7291 16.0593C15.6826 15.6879 15.7131 15.2417 15.9379 14.8293C16.1298 14.4772 16.6157 14.2126 17.2716 14.0556C17.5729 13.9835 17.8594 13.9465 18.0722 13.9279C18.1777 13.9187 18.2625 13.9142 18.319 13.912C18.3472 13.911 18.3681 13.9105 18.3808 13.9102L18.3929 13.9101L18.4017 13.91ZM20.8125 1.18613C20.5039 0.91715 20.0297 0.942725 19.7535 1.24325C19.4772 1.54377 19.5035 2.00544 19.8122 2.27441C21.7698 3.98043 23 6.45733 23 9.21497C23 14.3575 18.7185 18.5263 13.437 18.5263C10.6048 18.5263 8.06098 17.3285 6.30886 15.4224C6.03261 15.1218 5.55847 15.0963 5.24982 15.3652C4.94118 15.6342 4.91491 16.0959 5.19116 16.3964C7.12537 18.5006 9.89923 19.8612 13 19.9786V20.4737H11.75C11.3358 20.4737 11 20.8006 11 21.204C11 21.6073 11.3358 21.9342 11.75 21.9342H15.75C16.1642 21.9342 16.5 21.6073 16.5 21.204C16.5 20.8006 16.1642 20.4737 15.75 20.4737H14.5V19.9378C20.1112 19.4169 24.5 14.815 24.5 9.21497C24.5 6.02464 23.0746 3.15749 20.8125 1.18613Z" stroke="black" stroke-linecap="round"/>
</g>
<defs>
<filter id="filter0_d_2_248" x="0.5" y="0.5" width="28.5" height="29.9342" filterUnits="userSpaceOnUse" color-interpolation-filters="sRGB">
<feFlood flood-opacity="0" result="BackgroundImageFix"/>
<feColorMatrix in="SourceAlpha" type="matrix" values="0 0 0 0 0 0 0 0 0 0 0 0 0 0 0 0 0 0 127 0" result="hardAlpha"/>
<feOffset dy="4"/>
<feGaussianBlur stdDeviation="2"/>
<feComposite in2="hardAlpha" operator="out"/>
<feColorMatrix type="matrix" values="0 0 0 0 0 0 0 0 0 0 0 0 0 0 0 0 0 0 0.25 0"/>
<feBlend mode="normal" in2="BackgroundImageFix" result="effect1_dropShadow_2_248"/>
<feBlend mode="normal" in="SourceGraphic" in2="effect1_dropShadow_2_248" result="shape"/>
</filter>
</defs>
</svg>
