<?xml version="1.0" standalone="no"?>
<!DOCTYPE svg PUBLIC "-//W3C//DTD SVG 20010904//EN"
 "http://www.w3.org/TR/2001/REC-SVG-20010904/DTD/svg10.dtd">
<svg version="1.0" xmlns="http://www.w3.org/2000/svg"
 width="880.000000pt" height="880.000000pt" viewBox="0 0 880.000000 880.000000"
 preserveAspectRatio="xMidYMid meet">
<metadata>
Created by potrace 1.14, written by Peter Selinger 2001-2017
</metadata>
<g transform="translate(0.000000,880.000000) scale(0.100000,-0.100000)"
fill="#000000" stroke="none">
<path d="M240 5547 l0 -3253 56 -59 c170 -182 285 -305 332 -354 30 -31 95
-100 145 -155 51 -54 112 -120 137 -146 71 -75 285 -301 320 -340 18 -19 90
-96 160 -170 70 -74 142 -151 160 -170 18 -19 64 -69 104 -111 98 -104 310
-330 387 -412 35 -38 89 -95 119 -127 30 -32 76 -81 103 -109 26 -28 50 -51
52 -51 5 0 7 231 4 405 -1 44 -1 87 -1 95 1 8 1 87 1 175 -1 88 -1 167 0 175
1 15 0 108 -1 119 0 3 0 40 1 83 1 71 2 76 21 71 11 -3 20 -9 20 -13 0 -5 12
-13 28 -19 15 -7 47 -23 72 -38 67 -38 318 -162 340 -168 3 -1 28 -12 55 -24
28 -13 58 -24 67 -26 9 -2 26 -8 36 -14 21 -11 272 -98 307 -106 11 -3 79 -20
152 -40 148 -39 160 -41 263 -59 14 -3 25 -5 25 -6 0 -1 16 -3 35 -5 19 -2 51
-6 70 -10 42 -8 65 -11 150 -19 36 -3 81 -8 100 -11 19 -3 99 -7 177 -10 77
-2 145 -5 150 -6 4 -1 10 -1 13 0 3 1 66 4 140 6 147 5 233 10 295 19 22 3 65
8 95 11 30 3 62 8 70 10 8 2 31 6 50 9 19 3 49 8 65 11 52 9 100 17 102 17 1
0 69 18 150 39 81 22 157 41 167 44 24 6 86 25 106 32 8 3 20 7 25 9 6 1 43
14 83 28 55 19 75 22 82 13 21 -25 53 -63 83 -100 47 -57 244 -295 288 -347
20 -25 46 -55 56 -67 10 -12 29 -36 43 -54 14 -18 34 -42 45 -53 11 -12 32
-37 46 -56 15 -19 39 -48 54 -65 14 -16 47 -56 72 -88 l46 -57 998 0 999 0 0
4400 0 4400 -1040 0 -1040 0 0 -107 c0 -60 0 -116 -1 -125 0 -10 0 -65 0 -123
0 -58 0 -111 0 -117 0 -7 0 -62 0 -123 0 -60 0 -118 0 -127 0 -18 -21 -15 -49
7 -31 25 -262 146 -360 189 -107 47 -143 63 -192 84 -27 12 -48 18 -48 15 0
-3 -6 -1 -12 4 -22 17 -342 121 -428 138 -8 2 -43 10 -76 19 -34 9 -74 18 -90
20 -16 2 -36 6 -44 9 -8 3 -49 11 -90 18 -41 6 -82 13 -91 14 -9 2 -40 6 -70
10 -30 3 -70 8 -89 10 -81 10 -163 16 -257 20 -55 2 -104 5 -109 6 -5 1 -11 0
-14 -1 -16 -6 -70 -4 -70 3 0 5 -5 5 -10 2 -6 -4 -70 -8 -143 -10 -125 -4
-180 -8 -272 -19 -22 -3 -60 -8 -85 -10 -25 -3 -56 -7 -70 -10 -14 -3 -43 -8
-65 -11 -57 -9 -59 -10 -72 -18 -8 -5 -13 -3 -13 5 0 8 -3 9 -8 3 -4 -5 -16
-11 -27 -11 -39 -3 -220 -48 -223 -56 -2 -5 -7 -6 -12 -3 -4 3 -30 -2 -56 -11
-27 -8 -59 -17 -72 -20 -22 -4 -242 -78 -272 -91 -8 -3 -19 -7 -25 -9 -5 -1
-58 -23 -117 -47 l-107 -46 -38 47 c-20 26 -40 49 -43 52 -3 3 -21 25 -40 50
-19 25 -37 47 -40 50 -3 3 -40 48 -82 100 -41 52 -84 105 -94 117 -41 47 -54
63 -54 70 0 32 -25 32 -1072 33 l-1038 0 0 -3253z"/>
</g>
</svg>
