<svg xmlns="http://www.w3.org/2000/svg" xmlns:xlink="http://www.w3.org/1999/xlink" viewBox="0,0,256,256" width="240px" height="240px" fill-rule="nonzero"><g fill="#dddddd" fill-rule="nonzero" stroke="#dddddd" stroke-width="1" stroke-linecap="butt" stroke-linejoin="round" stroke-miterlimit="10" stroke-dasharray="" stroke-dashoffset="0" font-family="none" font-weight="none" font-size="none" text-anchor="none" style="mix-blend-mode: normal"><path transform="scale(5.33333,5.33333)" d="M46,34c-5.162,5.953 -13,6 -13,6l-1.639,-2.185c2.782,-0.967 5.924,-2.694 8.639,-5.815c-3.238,2.45 -8.125,5 -16,5c-7.875,0 -12.762,-2.55 -16,-5c2.715,3.121 5.857,4.848 8.639,5.815l-1.639,2.185c0,0 -7.838,-0.047 -13,-6c0.879,-14.575 6,-22 6,-22c0,0 4.319,-3.463 10,-4l0.488,0.976c-4.47,1.009 -7.142,2.915 -9.488,5.024c4.045,-2.065 8.039,-4 15,-4c6.961,0 10.955,1.935 15,4c-2.346,-2.109 -4.592,-3.826 -9.488,-5.024l0.488,-0.976c5.415,0.412 10,4 10,4c0,0 5.121,7.425 6,22z" id="strokeMainSVG"></path></g><g fill="#8c9eff" fill-rule="nonzero" stroke="none" stroke-width="1" stroke-linecap="butt" stroke-linejoin="miter" stroke-miterlimit="10" stroke-dasharray="" stroke-dashoffset="0" font-family="none" font-weight="none" font-size="none" text-anchor="none" style="mix-blend-mode: normal"><g transform="scale(5.33333,5.33333)"><path d="M40,12c0,0 -4.585,-3.588 -10,-4l-0.488,0.976c4.896,1.198 7.142,2.915 9.488,5.024c-4.045,-2.065 -8.039,-4 -15,-4c-6.961,0 -10.955,1.935 -15,4c2.346,-2.109 5.018,-4.015 9.488,-5.024l-0.488,-0.976c-5.681,0.537 -10,4 -10,4c0,0 -5.121,7.425 -6,22c5.162,5.953 13,6 13,6l1.639,-2.185c-2.782,-0.967 -5.924,-2.694 -8.639,-5.815c3.238,2.45 8.125,5 16,5c7.875,0 12.762,-2.55 16,-5c-2.715,3.121 -5.857,4.848 -8.639,5.815l1.639,2.185c0,0 7.838,-0.047 13,-6c-0.879,-14.575 -6,-22 -6,-22zM17.5,30c-1.933,0 -3.5,-1.791 -3.5,-4c0,-2.209 1.567,-4 3.5,-4c1.933,0 3.5,1.791 3.5,4c0,2.209 -1.567,4 -3.5,4zM30.5,30c-1.933,0 -3.5,-1.791 -3.5,-4c0,-2.209 1.567,-4 3.5,-4c1.933,0 3.5,1.791 3.5,4c0,2.209 -1.567,4 -3.5,4z"></path></g></g><g fill="none" fill-rule="nonzero" stroke="none" stroke-width="none" stroke-linecap="butt" stroke-linejoin="none" stroke-miterlimit="10" stroke-dasharray="" stroke-dashoffset="0" font-family="none" font-weight="none" font-size="none" text-anchor="none" style="mix-blend-mode: normal"><path d="M46.23833,233.83667v-30.34h9.33c2.66667,0 5.05333,0.60333 7.16,1.81c2.1,1.2 3.74333,2.90667 4.93,5.12c1.18,2.21333 1.77,4.73 1.77,7.55v1.4c0,2.82 -0.58,5.32667 -1.74,7.52c-1.16,2.19333 -2.79667,3.89333 -4.91,5.1c-2.11333,1.21333 -4.49667,1.82667 -7.15,1.84zM52.48833,208.56667v20.25h3.02c2.44667,0 4.31333,-0.8 5.6,-2.4c1.29333,-1.6 1.95333,-3.88333 1.98,-6.85v-1.61c0,-3.08 -0.63667,-5.41667 -1.91,-7.01c-1.28,-1.58667 -3.15,-2.38 -5.61,-2.38zM80.60833,203.49667v30.34h-6.25v-30.34zM102.12833,225.87667c0,-1.18 -0.41667,-2.08667 -1.25,-2.72c-0.83333,-0.63333 -2.33333,-1.3 -4.5,-2c-2.16667,-0.7 -3.88,-1.39 -5.14,-2.07c-3.44667,-1.86 -5.17,-4.36667 -5.17,-7.52c0,-1.64 0.46333,-3.10333 1.39,-4.39c0.92,-1.28667 2.24667,-2.29 3.98,-3.01c1.72667,-0.72 3.66667,-1.08 5.82,-1.08c2.16667,0 4.09667,0.39 5.79,1.17c1.69333,0.78667 3.01,1.89667 3.95,3.33c0.94,1.42667 1.41,3.05 1.41,4.87h-6.25c0,-1.38667 -0.44,-2.46667 -1.32,-3.24c-0.87333,-0.76667 -2.1,-1.15 -3.68,-1.15c-1.53333,0 -2.72333,0.32 -3.57,0.96c-0.84667,0.64667 -1.27,1.5 -1.27,2.56c0,0.98667 0.49667,1.81333 1.49,2.48c0.99333,0.66667 2.45667,1.29 4.39,1.87c3.55333,1.07333 6.14333,2.4 7.77,3.98c1.62667,1.58667 2.44,3.56 2.44,5.92c0,2.62 -0.99333,4.67667 -2.98,6.17c-1.98667,1.49333 -4.66,2.24 -8.02,2.24c-2.33333,0 -4.46,-0.42667 -6.38,-1.28c-1.91333,-0.85333 -3.37667,-2.02333 -4.39,-3.51c-1.00667,-1.48667 -1.51,-3.20667 -1.51,-5.16h6.28c0,3.34667 2,5.02 6,5.02c1.48,0 2.63667,-0.30333 3.47,-0.91c0.83333,-0.60667 1.25,-1.45 1.25,-2.53zM136.44833,223.72667c-0.24,3.26667 -1.44667,5.83667 -3.62,7.71c-2.17333,1.87333 -5.03667,2.81 -8.59,2.81c-3.88667,0 -6.94667,-1.30667 -9.18,-3.92c-2.22667,-2.62 -3.34,-6.21333 -3.34,-10.78v-1.86c0,-2.91333 0.51333,-5.48333 1.54,-7.71c1.02667,-2.22 2.49667,-3.92333 4.41,-5.11c1.90667,-1.18667 4.12333,-1.78 6.65,-1.78c3.5,0 6.32,0.93667 8.46,2.81c2.14,1.87333 3.37667,4.50667 3.71,7.9h-6.25c-0.15333,-1.96 -0.7,-3.38333 -1.64,-4.27c-0.93333,-0.88 -2.36,-1.32 -4.28,-1.32c-2.08,0 -3.64,0.74667 -4.68,2.24c-1.03333,1.49333 -1.56333,3.81 -1.59,6.95v2.29c0,3.28 0.49667,5.67667 1.49,7.19c0.99333,1.51333 2.56,2.27 4.7,2.27c1.92667,0 3.36667,-0.44 4.32,-1.32c0.95333,-0.88667 1.5,-2.25333 1.64,-4.1zM165.46833,219.35667c0,2.98667 -0.53,5.60333 -1.59,7.85c-1.05333,2.25333 -2.56333,3.99 -4.53,5.21c-1.96,1.22 -4.21333,1.83 -6.76,1.83c-2.51333,0 -4.75667,-0.60333 -6.73,-1.81c-1.96667,-1.20667 -3.49333,-2.93333 -4.58,-5.18c-1.08,-2.24 -1.63,-4.82 -1.65,-7.74v-1.5c0,-2.98 0.54,-5.60667 1.62,-7.88c1.07333,-2.27333 2.59333,-4.01667 4.56,-5.23c1.96667,-1.21333 4.21333,-1.82 6.74,-1.82c2.52667,0 4.77333,0.60667 6.74,1.82c1.96667,1.21333 3.48667,2.95667 4.56,5.23c1.08,2.27333 1.62,4.89333 1.62,7.86zM159.12833,217.97667c0,-3.18 -0.56667,-5.59667 -1.7,-7.25c-1.14,-1.65333 -2.76667,-2.48 -4.88,-2.48c-2.09333,0 -3.71,0.81667 -4.85,2.45c-1.14,1.63333 -1.71667,4.02667 -1.73,7.18v1.48c0,3.09333 0.57,5.49667 1.71,7.21c1.13333,1.70667 2.77,2.56 4.91,2.56c2.1,0 3.71333,-0.82333 4.84,-2.47c1.12,-1.64667 1.68667,-4.04667 1.7,-7.2zM186.92833,233.83667l-5.69,-11.11h-4.98v11.11h-6.25v-30.34h11.27c3.58667,0 6.35,0.8 8.29,2.4c1.94667,1.6 2.92,3.85667 2.92,6.77c0,2.06667 -0.45,3.79333 -1.35,5.18c-0.89333,1.38 -2.25,2.48 -4.07,3.3l6.56,12.4v0.29zM176.25833,208.56667v9.1h5.04c1.57333,0 2.79,-0.4 3.65,-1.2c0.86,-0.8 1.29,-1.9 1.29,-3.3c0,-1.43333 -0.40667,-2.55667 -1.22,-3.37c-0.81333,-0.82 -2.06,-1.23 -3.74,-1.23zM197.23833,233.83667v-30.34h9.33c2.66667,0 5.05333,0.60333 7.16,1.81c2.1,1.2 3.74333,2.90667 4.93,5.12c1.18,2.21333 1.77,4.73 1.77,7.55v1.4c0,2.82 -0.58,5.32667 -1.74,7.52c-1.16,2.19333 -2.79667,3.89333 -4.91,5.1c-2.11333,1.21333 -4.49667,1.82667 -7.15,1.84zM203.48833,208.56667v20.25h3.02c2.44667,0 4.31333,-0.8 5.6,-2.4c1.29333,-1.6 1.95333,-3.88333 1.98,-6.85v-1.61c0,-3.08 -0.63667,-5.41667 -1.91,-7.01c-1.28,-1.58667 -3.15,-2.38 -5.61,-2.38z" id="strokeMainSVG" fill="#dddddd" stroke="#dddddd" stroke-width="5.33333" stroke-linejoin="round"></path><g fill="#000000" stroke="none" stroke-width="1" stroke-linejoin="miter"><path d="M55.62833,233.83667h-9.39v-30.34h9.33c2.66667,0 5.05333,0.60333 7.16,1.81c2.1,1.2 3.74333,2.90667 4.93,5.12c1.18,2.21333 1.77,4.73 1.77,7.55v0v1.4c0,2.82 -0.58,5.32667 -1.74,7.52c-1.16,2.19333 -2.79667,3.89333 -4.91,5.1c-2.11333,1.21333 -4.49667,1.82667 -7.15,1.84zM55.56833,208.56667h-3.08v20.25h3.02c2.44667,0 4.31333,-0.8 5.6,-2.4c1.29333,-1.6 1.95333,-3.88333 1.98,-6.85v0v-1.61c0,-3.08 -0.63667,-5.41667 -1.91,-7.01c-1.28,-1.58667 -3.15,-2.38 -5.61,-2.38zM80.60833,203.49667v30.34h-6.25v-30.34zM102.12833,225.87667v0c0,-1.18 -0.41667,-2.08667 -1.25,-2.72c-0.83333,-0.63333 -2.33333,-1.3 -4.5,-2c-2.16667,-0.7 -3.88,-1.39 -5.14,-2.07v0c-3.44667,-1.86 -5.17,-4.36667 -5.17,-7.52v0c0,-1.64 0.46333,-3.10333 1.39,-4.39c0.92,-1.28667 2.24667,-2.29 3.98,-3.01c1.72667,-0.72 3.66667,-1.08 5.82,-1.08v0c2.16667,0 4.09667,0.39 5.79,1.17c1.69333,0.78667 3.01,1.89667 3.95,3.33c0.94,1.42667 1.41,3.05 1.41,4.87v0h-6.25c0,-1.38667 -0.44,-2.46667 -1.32,-3.24c-0.87333,-0.76667 -2.1,-1.15 -3.68,-1.15v0c-1.53333,0 -2.72333,0.32 -3.57,0.96c-0.84667,0.64667 -1.27,1.5 -1.27,2.56v0c0,0.98667 0.49667,1.81333 1.49,2.48c0.99333,0.66667 2.45667,1.29 4.39,1.87v0c3.55333,1.07333 6.14333,2.4 7.77,3.98c1.62667,1.58667 2.44,3.56 2.44,5.92v0c0,2.62 -0.99333,4.67667 -2.98,6.17c-1.98667,1.49333 -4.66,2.24 -8.02,2.24v0c-2.33333,0 -4.46,-0.42667 -6.38,-1.28c-1.91333,-0.85333 -3.37667,-2.02333 -4.39,-3.51c-1.00667,-1.48667 -1.51,-3.20667 -1.51,-5.16v0h6.28c0,3.34667 2,5.02 6,5.02v0c1.48,0 2.63667,-0.30333 3.47,-0.91c0.83333,-0.60667 1.25,-1.45 1.25,-2.53zM130.19833,223.72667h6.25c-0.24,3.26667 -1.44667,5.83667 -3.62,7.71c-2.17333,1.87333 -5.03667,2.81 -8.59,2.81v0c-3.88667,0 -6.94667,-1.30667 -9.18,-3.92c-2.22667,-2.62 -3.34,-6.21333 -3.34,-10.78v0v-1.86c0,-2.91333 0.51333,-5.48333 1.54,-7.71c1.02667,-2.22 2.49667,-3.92333 4.41,-5.11c1.90667,-1.18667 4.12333,-1.78 6.65,-1.78v0c3.5,0 6.32,0.93667 8.46,2.81c2.14,1.87333 3.37667,4.50667 3.71,7.9v0h-6.25c-0.15333,-1.96 -0.7,-3.38333 -1.64,-4.27c-0.93333,-0.88 -2.36,-1.32 -4.28,-1.32v0c-2.08,0 -3.64,0.74667 -4.68,2.24c-1.03333,1.49333 -1.56333,3.81 -1.59,6.95v0v2.29c0,3.28 0.49667,5.67667 1.49,7.19c0.99333,1.51333 2.56,2.27 4.7,2.27v0c1.92667,0 3.36667,-0.44 4.32,-1.32c0.95333,-0.88667 1.5,-2.25333 1.64,-4.1zM165.46833,217.99667v1.36c0,2.98667 -0.53,5.60333 -1.59,7.85c-1.05333,2.25333 -2.56333,3.99 -4.53,5.21c-1.96,1.22 -4.21333,1.83 -6.76,1.83v0c-2.51333,0 -4.75667,-0.60333 -6.73,-1.81c-1.96667,-1.20667 -3.49333,-2.93333 -4.58,-5.18c-1.08,-2.24 -1.63,-4.82 -1.65,-7.74v0v-1.5c0,-2.98 0.54,-5.60667 1.62,-7.88c1.07333,-2.27333 2.59333,-4.01667 4.56,-5.23c1.96667,-1.21333 4.21333,-1.82 6.74,-1.82c2.52667,0 4.77333,0.60667 6.74,1.82c1.96667,1.21333 3.48667,2.95667 4.56,5.23c1.08,2.27333 1.62,4.89333 1.62,7.86zM159.12833,219.45667v-1.48c0,-3.18 -0.56667,-5.59667 -1.7,-7.25c-1.14,-1.65333 -2.76667,-2.48 -4.88,-2.48v0c-2.09333,0 -3.71,0.81667 -4.85,2.45c-1.14,1.63333 -1.71667,4.02667 -1.73,7.18v0v1.48c0,3.09333 0.57,5.49667 1.71,7.21c1.13333,1.70667 2.77,2.56 4.91,2.56v0c2.1,0 3.71333,-0.82333 4.84,-2.47c1.12,-1.64667 1.68667,-4.04667 1.7,-7.2zM186.92833,233.83667l-5.69,-11.11h-4.98v11.11h-6.25v-30.34h11.27c3.58667,0 6.35,0.8 8.29,2.4c1.94667,1.6 2.92,3.85667 2.92,6.77v0c0,2.06667 -0.45,3.79333 -1.35,5.18c-0.89333,1.38 -2.25,2.48 -4.07,3.3v0l6.56,12.4v0.29zM176.25833,208.56667v9.1h5.04c1.57333,0 2.79,-0.4 3.65,-1.2c0.86,-0.8 1.29,-1.9 1.29,-3.3v0c0,-1.43333 -0.40667,-2.55667 -1.22,-3.37c-0.81333,-0.82 -2.06,-1.23 -3.74,-1.23v0zM206.62833,233.83667h-9.39v-30.34h9.33c2.66667,0 5.05333,0.60333 7.16,1.81c2.1,1.2 3.74333,2.90667 4.93,5.12c1.18,2.21333 1.77,4.73 1.77,7.55v0v1.4c0,2.82 -0.58,5.32667 -1.74,7.52c-1.16,2.19333 -2.79667,3.89333 -4.91,5.1c-2.11333,1.21333 -4.49667,1.82667 -7.15,1.84zM206.56833,208.56667h-3.08v20.25h3.02c2.44667,0 4.31333,-0.8 5.6,-2.4c1.29333,-1.6 1.95333,-3.88333 1.98,-6.85v0v-1.61c0,-3.08 -0.63667,-5.41667 -1.91,-7.01c-1.28,-1.58667 -3.15,-2.38 -5.61,-2.38z"></path></g></g></svg>