<svg width="60" height="60" viewBox="0 0 60 60" fill="none" xmlns="http://www.w3.org/2000/svg">
<g clip-path="url(#clip0_84_161)">
<path d="M14.8857 27.1878H27.1609V17.9054C23.8214 17.8172 20.2222 17.4907 16.7261 17.0308C15.6872 20.3713 15.0521 23.8262 14.8857 27.1878Z" fill="#F4FAFF"/>
<path d="M30.7421 0.0583594C30.7153 0.0348047 30.6763 0 30.6763 0V14.388C33.6258 14.3061 36.7915 14.0297 39.9001 13.6373C37.7661 8.35652 34.6185 3.44777 30.7421 0.0583594Z" fill="#F4FAFF"/>
<path d="M16.8013 41.1129C20.2995 40.6418 23.8663 40.3111 27.1609 40.2209V30.7031H14.8857C15.056 34.1463 15.7181 37.6914 16.8013 41.1129Z" fill="#F4FAFF"/>
<path d="M42.7032 24.3422C42.3974 21.8988 41.8595 19.4367 41.1118 17.0332C37.6208 17.4949 34.0325 17.8184 30.6763 17.9062V27.1875H36.9763C38.7575 26.6848 40.8294 25.8223 42.7032 24.3422Z" fill="#F4FAFF"/>
<path d="M46.0479 22.8846C47.36 22.8008 48.6972 23.2166 49.7511 24.0963C51.7011 25.7275 53.9007 26.658 55.778 27.1877H57.8101C57.5429 22.7111 56.262 18.4291 54.0765 14.6064C51.3976 15.2826 48.1257 15.9564 44.6265 16.5189C45.2522 18.6236 45.7304 20.7611 46.0479 22.8846Z" fill="#F4FAFF"/>
<path d="M17.9341 13.6444C21.0407 14.0336 24.2062 14.3074 27.1607 14.3884V0C27.1607 0 27.1177 0.0384375 27.0949 0.0583594C23.2169 3.4493 20.0682 8.36074 17.9341 13.6444Z" fill="#F4FAFF"/>
<path d="M43.4787 13.1329C46.6022 12.6468 49.5481 12.0703 52.0129 11.4904C48.2193 6.49273 42.8267 2.69023 36.4409 0.983398C39.4249 4.50664 41.7977 8.73195 43.4787 13.1329Z" fill="#F4FAFF"/>
<path d="M27.1608 57.8153V43.7388C24.2721 43.8237 21.135 44.1057 18.0298 44.5051C20.1741 49.737 23.3105 54.4697 27.1608 57.8153Z" fill="#F4FAFF"/>
<path d="M14.4507 45.0176C11.3949 45.4989 8.48525 46.0671 6.00732 46.6411C9.84217 51.5855 15.1783 55.234 21.3463 56.8944C18.4148 53.4116 16.1021 49.2795 14.4507 45.0176Z" fill="#F4FAFF"/>
<path d="M13.2104 16.5191C9.6666 15.9549 6.3734 15.2838 3.7498 14.6255C1.57012 18.4426 0.293359 22.7188 0.0273438 27.1875H11.3659C11.5261 23.6862 12.1581 20.0555 13.2104 16.5191Z" fill="#F4FAFF"/>
<path d="M30.6763 47.3931V57.8157C31.9489 56.7095 33.1442 55.452 34.2481 54.0751C32.7242 52.0877 31.5077 49.8125 30.6763 47.3931Z" fill="#F4FAFF"/>
<path d="M11.3659 30.7031H0.0273438C0.299453 35.2753 1.63082 39.6454 3.90379 43.5289C6.60906 42.8584 9.85281 42.1934 13.2852 41.6355C12.1879 38.0141 11.5298 34.2899 11.3659 30.7031Z" fill="#F4FAFF"/>
<path d="M21.3963 0.983887C15.1286 2.65908 9.68631 6.39502 5.81104 11.5081C8.27982 12.0862 11.2285 12.6601 14.3545 13.1435C16.0174 8.7867 18.3815 4.54334 21.3963 0.983887Z" fill="#F4FAFF"/>
<path d="M58.4196 31.2847C56.0524 31.0105 51.4047 30.0625 47.4953 26.7941C46.8484 26.2527 45.9039 26.2562 45.257 26.7964C41.3488 30.0636 36.7023 31.0105 34.3362 31.2847C33.4503 31.3879 32.7847 32.139 32.7847 33.0309V38.9582C32.7847 45.0919 35.2632 50.8681 39.4761 54.5478L45.2219 59.5669C45.884 60.1447 46.8719 60.1447 47.534 59.5669L53.2797 54.5478C57.4926 50.8681 59.9723 45.0919 59.9723 38.9582V33.0309C59.9723 32.139 59.3055 31.3879 58.4196 31.2847ZM53.7145 40.1395L47.6207 46.2333C46.9333 46.9207 45.8227 46.9209 45.1351 46.2333L41.8539 42.952C41.1671 42.2665 41.1671 41.1532 41.8539 40.4664C42.5406 39.7797 43.6539 39.7797 44.3394 40.4664L46.3785 42.5043L51.2289 37.6539C51.9156 36.9672 53.0289 36.9672 53.7145 37.6539C54.4012 38.3406 54.4012 39.4539 53.7145 40.1395Z" fill="#F4FAFF"/>
</g>
<defs>
<clipPath id="clip0_84_161">
<rect width="60" height="60" fill="white"/>
</clipPath>
</defs>
</svg>
