<svg width="60" height="60" viewBox="0 0 60 60" fill="none" xmlns="http://www.w3.org/2000/svg">
<path d="M59.8166 41.2363C59.6513 41.0231 59.3965 40.8984 59.1267 40.8984H40.6352C40.1529 40.8984 39.762 41.2893 39.762 41.7716V42.7113H20.2379V41.7716C20.2379 41.2894 19.8469 40.8984 19.3647 40.8984H0.873101C0.603447 40.8984 0.348909 41.023 0.183437 41.2361C0.0180813 41.449 -0.0395762 41.7265 0.0272222 41.9878L0.0453867 42.059C1.58105 48.0477 6.7666 52.0714 12.9491 52.0714H47.0509C53.2335 52.0714 58.4189 48.0476 59.9546 42.059L59.9726 41.9885C60.0395 41.7271 59.9819 41.4495 59.8166 41.2363Z" fill="white"/>
<path d="M22.9162 39.1954H37.0839C37.8825 38.0977 39.177 37.3826 40.6354 37.3826H56.7195V13.4371C56.7195 10.4 54.2487 7.9292 51.2116 7.9292H8.7887C5.7516 7.9292 3.28076 10.4 3.28076 13.4371V37.3826H19.365C20.8231 37.3826 22.1177 38.0977 22.9162 39.1954ZM33.5168 14.773H47.9313C50.2612 14.8595 50.2594 18.203 47.9313 18.2887H33.5168C31.1869 18.2023 31.1887 14.8587 33.5168 14.773ZM33.5168 21.8044H42.9174C45.2473 21.8909 45.2455 25.2344 42.9174 25.3201H33.5168C31.1869 25.2337 31.1887 21.8901 33.5168 21.8044ZM33.5168 28.8358H47.9313C50.2612 28.9223 50.2594 32.2659 47.9313 32.3515H33.5168C31.1869 32.2652 31.1887 28.9215 33.5168 28.8358ZM17.2787 21.9361C18.0656 21.3675 19.1645 21.5448 19.7329 22.332C20.1832 22.9555 20.9112 23.3278 21.6805 23.3278C23.8541 23.3385 24.9109 20.6041 23.2996 19.1504C22.5823 18.4961 22.5314 17.3843 23.1856 16.6671C23.8399 15.9498 24.9517 15.8987 25.6689 16.5532C29.639 20.136 27.0337 26.87 21.6802 26.8434C19.7855 26.8434 17.992 25.9263 16.8827 24.3903C16.3144 23.6034 16.4916 22.5045 17.2787 21.9361ZM10.313 23.2985C10.313 22.8197 10.3516 22.3373 10.4277 21.8645C10.5821 20.906 11.4841 20.2539 12.4426 20.4083C13.4011 20.5625 14.053 21.4648 13.8987 22.4232C13.2438 26.1014 16.6835 29.457 20.3439 28.7136C21.2982 28.5353 22.2161 29.1655 22.3938 30.12C22.5714 31.0744 21.9418 31.9922 20.9874 32.1698C15.5254 33.2398 10.2557 28.8699 10.313 23.2985Z" fill="white"/>
</svg>
