<svg width="80" height="80" viewBox="0 0 80 80" fill="none" xmlns="http://www.w3.org/2000/svg">
<g clip-path="url(#clip0_83_258)">
<path d="M72.3283 65.2565C70.2137 64.3888 68.4714 63.0223 68.5978 60.4054C68.7209 57.7919 66.7292 56.06 66.7292 56.06C66.7292 56.06 68.4714 50.3378 66.8522 45.6133C65.2364 40.8817 59.89 33.3012 55.7871 27.5824C51.6911 21.8603 55.1688 15.2669 51.4417 6.81522C47.7077 -1.63647 38.0125 -1.14109 32.7892 2.46632C27.5625 6.06707 29.1783 15.0175 29.4243 19.2536C29.6737 23.476 29.537 26.4857 29.0553 27.5789C28.5634 28.6722 25.2018 32.6828 22.9608 36.0374C20.7232 39.3922 19.1073 46.3578 17.4846 49.2172C15.8687 52.0766 16.9892 54.6866 16.9892 54.6866C16.9892 54.6866 15.8687 55.0556 14.9975 56.931C14.1263 58.7894 12.3875 59.6606 9.27886 60.2755C6.17017 60.8973 6.17017 62.8958 6.91483 65.1334C7.66298 67.3676 6.91832 68.6179 6.04711 71.4705C5.17591 74.3231 9.52829 75.201 13.7541 75.6896C17.9835 76.1918 22.708 78.9281 26.6914 79.4235C30.6645 79.9222 31.9114 76.6905 31.9114 76.6905C31.9114 76.6905 36.3866 75.6896 41.1079 75.5733C45.8359 75.4469 50.3044 76.5674 50.3044 76.5674C50.3044 76.5674 51.1756 78.5556 52.7915 79.4234C54.4108 80.2946 57.8918 80.4209 60.1295 78.0637C62.3705 75.6962 68.3387 72.7174 71.6934 70.8488C75.0578 68.9768 74.4429 66.1209 72.3283 65.2565ZM43.229 10.4229C45.3606 10.4229 47.0825 12.5375 47.0825 15.1442C47.0825 16.9957 46.2182 18.5911 44.9576 19.3665C44.6364 19.2265 44.2983 19.083 43.9396 18.9293C44.698 18.5535 45.2378 17.5868 45.2378 16.4593C45.2378 14.9904 44.329 13.798 43.205 13.798C42.0949 13.798 41.1826 14.9937 41.1826 16.4593C41.1826 17.0025 41.3125 17.5251 41.5345 17.9521C40.8717 17.6891 40.2603 17.4431 39.782 17.2621C39.5224 16.6267 39.3754 15.9093 39.3754 15.144C39.3754 12.5375 41.0973 10.4229 43.229 10.4229ZM42.9523 20.3777C44.0181 20.7467 45.2035 21.4403 45.0806 22.1268C44.9543 22.8168 44.3939 22.8168 42.9523 23.6983C41.5073 24.5729 38.378 26.5132 37.3769 26.6396C36.3692 26.766 35.8089 26.2024 34.7431 25.5157C33.6772 24.8256 31.6719 23.1892 32.1774 22.3181C32.1774 22.3181 33.7387 21.1224 34.4254 20.4973C35.1154 19.8687 36.8714 18.3689 37.9373 18.5637C39.0031 18.7448 41.8864 20.0019 42.9523 20.3777ZM33.3424 11.1711C35.0232 11.1711 36.3897 13.1729 36.3897 15.6429C36.3897 16.0973 36.3453 16.5174 36.2598 16.924C35.8499 17.064 35.4331 17.2895 35.03 17.6311C34.8251 17.7985 34.6439 17.9556 34.4697 18.1127C34.7362 17.614 34.842 16.9034 34.7225 16.1552C34.4969 14.8059 33.5985 13.8219 32.7069 13.9621C31.8187 14.1159 31.2823 15.3285 31.5078 16.6848C31.7367 18.0411 32.6318 19.0249 33.5199 18.878C33.5713 18.8677 33.6191 18.854 33.6702 18.8369C33.2365 19.2538 32.8367 19.6125 32.4302 19.9164C31.2004 19.3459 30.2985 17.648 30.2985 15.6392C30.2987 13.1696 31.6616 11.1711 33.3424 11.1711ZM30.0595 73.9986C29.6633 75.7819 27.5759 77.0766 27.5759 77.0766C25.6834 77.671 20.4224 75.389 18.0378 74.3881C15.6567 73.4008 9.59291 73.0934 8.79693 72.2119C8.00776 71.3099 9.19318 69.3252 9.49725 67.4428C9.79103 65.5468 8.90288 64.3614 9.19666 63.0667C9.49725 61.7788 13.3712 61.7788 14.8574 60.8871C16.3502 59.9887 16.6474 57.406 17.8397 56.7126C19.0319 56.0123 21.2149 58.4959 22.1099 59.893C23.0015 61.2766 26.3801 67.2414 27.7706 68.7309C29.1644 70.2203 30.4558 72.2154 30.0595 73.9986ZM52.0497 56.6716C51.6909 58.4241 51.6909 64.7578 51.6909 64.7578C51.6909 64.7578 47.8374 70.0973 41.8625 70.9718C35.8944 71.8464 32.9086 71.2178 32.9086 71.2178L29.5538 67.3677C29.5538 67.3677 32.1603 66.9886 31.7915 64.3786C31.4157 61.7687 23.8352 58.1611 22.4652 54.926C21.1021 51.6978 22.2193 46.2216 23.9615 43.4851C25.7005 40.752 26.8141 34.7874 28.5564 32.7922C30.2987 30.8108 31.6618 26.5815 31.04 24.7129C31.04 24.7129 34.7705 29.1915 37.3771 28.4501C39.9871 27.702 45.8391 23.3463 46.7033 24.0979C47.571 24.8461 55.0321 41.2541 55.7733 46.4775C56.5215 51.6974 55.2746 55.674 55.2746 55.674C55.2746 55.674 52.4185 54.9293 52.0497 56.6716ZM71.1326 68.3858C69.9711 69.4516 63.5076 72.0616 61.5705 74.0976C59.6438 76.1165 57.126 77.7598 55.5853 77.2815C54.0344 76.7929 52.6849 74.6716 53.3613 71.5765C54.0342 68.4917 54.6185 65.1097 54.5228 63.1759C54.4271 61.2424 54.0342 58.6289 54.5228 58.243C55.0046 57.8671 55.7731 58.0551 55.7731 58.0551C55.7731 58.0551 55.394 61.7207 57.6111 62.6943C59.8281 63.6509 63.019 62.3082 63.9857 61.3347C64.9559 60.3748 65.6323 58.9263 65.6323 58.9263C65.6323 58.9263 66.5957 59.4149 66.5 60.9556C66.4044 62.4997 67.1729 64.727 68.6284 65.4958C70.0735 66.2576 72.2941 67.3267 71.1326 68.3858Z" fill="#072A33"/>
</g>
<defs>
<clipPath id="clip0_83_258">
<rect width="80" height="80" fill="white"/>
</clipPath>
</defs>
</svg>
