<svg width="278" height="300" viewBox="0 0 278 300" fill="none" xmlns="http://www.w3.org/2000/svg">
<path fill-rule="evenodd" clip-rule="evenodd" d="M139.021 300C138.473 300 137.924 299.916 137.376 299.747C100.925 287.555 71.0981 266.334 48.6962 236.676C30.8928 213.05 17.7723 184.109 9.71439 150.654C-3.8702 93.9954 1.69864 44.5509 1.95177 42.4837C2.12052 41.0915 2.83772 39.8258 3.9768 38.9821C5.11588 38.1383 6.55028 37.8008 7.94249 38.0539C15.4942 39.4883 23.2568 40.2055 31.1038 40.2055C88.6906 40.2055 135.266 1.60335 135.73 1.18146C137.629 -0.379498 140.371 -0.379498 142.27 1.18146C142.396 1.30803 154.209 11.1379 172.983 20.799C190.195 29.6585 216.985 40.2055 246.896 40.2055C254.743 40.2055 262.506 39.4883 270.057 38.0539C271.45 37.8008 272.884 38.1383 274.023 38.9821C275.162 39.8258 275.879 41.0915 276.048 42.4837C276.301 44.5509 281.87 93.9954 268.286 150.654C260.228 184.109 247.107 213.05 229.304 236.676C206.902 266.334 177.075 287.555 140.624 299.747C140.076 299.916 139.57 300 139.021 300Z" fill="#5C9CEE"/>
</svg>
