<svg width="278" height="300" viewBox="0 0 278 300" fill="none" xmlns="http://www.w3.org/2000/svg">
<path fill-rule="evenodd" clip-rule="evenodd" d="M139.021 300C138.473 300 137.924 299.916 137.376 299.747C100.925 287.555 71.0981 266.334 48.6962 236.676C30.8928 213.05 17.7723 184.109 9.71439 150.654C-3.8702 93.9954 1.69864 44.5509 1.95177 42.4837C2.12052 41.0915 2.83772 39.8258 3.9768 38.9821C5.11588 38.1383 6.55028 37.8008 7.94249 38.0539C15.4942 39.4883 23.2568 40.2055 31.1038 40.2055C88.6906 40.2055 135.266 1.60335 135.73 1.18146C137.629 -0.379498 140.371 -0.379498 142.27 1.18146C142.396 1.30803 154.209 11.1379 172.983 20.799C190.195 29.6585 216.985 40.2055 246.896 40.2055C254.743 40.2055 262.506 39.4883 270.057 38.0539C271.45 37.8008 272.884 38.1383 274.023 38.9821C275.162 39.8258 275.879 41.0915 276.048 42.4837C276.301 44.5509 281.87 93.9954 268.286 150.654C260.228 184.109 247.107 213.05 229.304 236.676C206.902 266.334 177.075 287.555 140.624 299.747C140.076 299.916 139.57 300 139.021 300Z" fill="#5C9CEE"/>
<path fill-rule="evenodd" clip-rule="evenodd" d="M139.021 278.779C138.388 278.779 137.798 278.653 137.207 278.442C108.603 267.684 84.8092 250.345 66.4574 226.972C49.6243 205.456 37.1366 178.583 29.4583 147.068C24.0161 124.793 21.0629 100.914 20.6832 76.0653C20.641 72.0997 20.5988 68.5137 20.641 65.1386C20.6832 63.7886 21.2316 62.4808 22.2442 61.5526C23.2145 60.5823 24.5645 60.076 25.9145 60.1182C27.6021 60.2026 29.3318 60.2026 31.0193 60.2026C55.5306 60.2026 80.7169 54.2963 105.861 42.6523C116.408 37.8007 127.166 31.7678 136.152 25.7771C137.882 24.5958 140.118 24.5958 141.848 25.7771C150.834 31.7678 161.592 37.8007 172.139 42.6523C197.283 54.2963 222.469 60.2026 246.98 60.2026C248.668 60.2026 250.398 60.2026 252.085 60.1182C253.435 60.076 254.785 60.5823 255.756 61.5526C256.768 62.4808 257.317 63.7886 257.359 65.1386C257.401 68.5137 257.359 72.0997 257.317 76.1075C256.937 100.956 253.984 124.835 248.541 147.11C240.863 178.625 228.376 205.499 211.542 226.972C193.191 250.345 169.396 267.684 140.793 278.442C140.202 278.653 139.612 278.779 139.021 278.779Z" fill="#9FC5F5"/>
<path fill-rule="evenodd" clip-rule="evenodd" d="M26.5474 75.981C26.5474 74.3779 27.813 73.07 29.4583 73.0278C31.0615 73.0278 32.3693 74.2935 32.4115 75.8966C32.5803 87.5827 33.3397 99.3532 34.7741 111.082C36.1663 122.304 38.1491 133.399 40.807 144.284C41.1867 145.887 40.2585 147.448 38.6554 147.827C37.0944 148.207 35.5334 147.237 35.1537 145.676C32.4115 134.496 30.3865 123.147 28.9943 111.799C27.5177 99.9861 26.7161 88.0046 26.5474 75.981ZM242.846 145.718C242.466 147.279 240.905 148.249 239.344 147.87C237.741 147.49 236.813 145.887 237.193 144.326C239.851 133.441 241.834 122.346 243.226 111.124C244.66 99.3532 245.42 87.6249 245.63 75.9388C245.63 74.3357 246.938 73.0278 248.584 73.07C250.187 73.07 251.452 74.42 251.452 76.0232C251.284 88.0046 250.482 99.9861 249.048 111.841C247.613 123.19 245.588 134.496 242.846 145.718Z" fill="#C7DDFA"/>
<path fill-rule="evenodd" clip-rule="evenodd" d="M163.743 120.236H114.256C111.177 120.236 108.688 117.747 108.688 114.667V89.9451C108.688 73.2386 122.272 59.6118 139.021 59.6118C155.727 59.6118 169.312 73.2386 169.312 89.9451V114.667C169.312 117.747 166.823 120.236 163.743 120.236ZM119.825 109.099H158.174V89.9451C158.174 79.3559 149.568 70.7917 139.021 70.7917C128.432 70.7917 119.825 79.3559 119.825 89.9451V109.099Z" fill="#3B566A"/>
<path fill-rule="evenodd" clip-rule="evenodd" d="M186.989 214.611H91.0107C87.931 214.611 85.4419 212.122 85.4419 209.042C85.4419 205.963 87.931 203.474 91.0107 203.474H186.989C190.069 203.474 192.558 205.963 192.558 209.042C192.558 212.122 190.069 214.611 186.989 214.611Z" fill="#5C9CEE"/>
<path fill-rule="evenodd" clip-rule="evenodd" d="M186.989 235.241H91.0107C87.931 235.241 85.4419 232.752 85.4419 229.672C85.4419 226.593 87.931 224.104 91.0107 224.104H186.989C190.069 224.104 192.558 226.593 192.558 229.672C192.558 232.752 190.069 235.241 186.989 235.241Z" fill="#5C9CEE"/>
<path fill-rule="evenodd" clip-rule="evenodd" d="M177.243 188.37H100.756C97.6764 188.37 95.1873 185.881 95.1873 182.801V114.667C95.1873 111.588 97.6764 109.099 100.756 109.099H177.243C180.323 109.099 182.812 111.588 182.812 114.667V182.801C182.812 185.881 180.323 188.37 177.243 188.37Z" fill="#FFC107"/>
<path fill-rule="evenodd" clip-rule="evenodd" d="M139.021 169.386C135.941 169.386 133.41 166.897 133.41 163.817V150.57C133.41 147.49 135.941 145.001 139.021 145.001C142.1 145.001 144.59 147.49 144.59 150.57V163.817C144.59 166.897 142.1 169.386 139.021 169.386Z" fill="#FF9D05"/>
<path fill-rule="evenodd" clip-rule="evenodd" d="M95.1873 114.667V128.927H182.812V114.667C182.812 111.588 180.323 109.099 177.243 109.099H169.312H158.174H119.825H108.687H100.756C97.6764 109.099 95.1873 111.588 95.1873 114.667Z" fill="#FF9D05"/>
</svg>
