<svg width="60" height="60" viewBox="0 0 60 60" fill="none" xmlns="http://www.w3.org/2000/svg">
<g clip-path="url(#clip0_84_261)">
<path d="M12.7121 47.1559L9.63445 50.8492C9.18293 50.7041 8.70223 50.625 8.20312 50.625C5.61844 50.625 3.51562 52.7278 3.51562 55.3125C3.51562 57.8972 5.61844 60 8.20312 60C10.7878 60 12.8906 57.8972 12.8906 55.3125C12.8906 54.513 12.6891 53.7599 12.3346 53.1006L14.8857 50.0391H17.8125V46.5234H14.0625C13.5408 46.5234 13.046 46.7552 12.7121 47.1559Z" fill="#F4FAFF"/>
<path d="M12.3346 29.3994C12.6891 28.7401 12.8906 27.987 12.8906 27.1875C12.8906 24.6028 10.7878 22.5 8.20312 22.5C5.61844 22.5 3.51562 24.6028 3.51562 27.1875C3.51562 29.7722 5.61844 31.875 8.20312 31.875C8.70223 31.875 9.18293 31.7959 9.63434 31.6507L12.712 35.344C13.046 35.7448 13.5407 35.9764 14.0624 35.9764H17.8124V32.4608H14.8856L12.3346 29.3994Z" fill="#F4FAFF"/>
<path d="M4.6875 36.5625C2.10281 36.5625 0 38.6653 0 41.25C0 43.8347 2.10281 45.9375 4.6875 45.9375C6.65074 45.9375 8.33484 44.7238 9.03176 43.0078H17.8125V39.4922H9.03176C8.33484 37.7762 6.65074 36.5625 4.6875 36.5625Z" fill="#F4FAFF"/>
<path d="M40.6641 41.8359C41.6349 41.8359 42.4219 41.0489 42.4219 40.0781C42.4219 39.1073 41.6349 38.3203 40.6641 38.3203C39.6932 38.3203 38.9062 39.1073 38.9062 40.0781C38.9062 41.0489 39.6932 41.8359 40.6641 41.8359Z" fill="#F4FAFF"/>
<path d="M55.3125 26.0156H26.0156C23.4268 26.0156 21.3281 28.1143 21.3281 30.7031V52.9688C21.3281 55.5575 23.4268 57.6562 26.0156 57.6562H55.3125C57.9013 57.6562 60 55.5575 60 52.9688V30.7031C60 28.1143 57.9013 26.0156 55.3125 26.0156ZM42.4219 45.0492V48.2812C42.4219 49.252 41.6348 50.0391 40.6641 50.0391C39.6933 50.0391 38.9062 49.252 38.9062 48.2812V45.0492C36.8603 44.3236 35.3906 42.3697 35.3906 40.0781C35.3906 37.1704 37.7563 34.8047 40.6641 34.8047C43.5718 34.8047 45.9375 37.1704 45.9375 40.0781C45.9375 42.3697 44.4679 44.3236 42.4219 45.0492Z" fill="#F4FAFF"/>
<path d="M33.0469 14.6483C33.0469 10.4415 36.4571 7.03113 40.6641 7.03113C44.871 7.03113 48.2812 10.4414 48.2812 14.6483V22.5H55.3125V14.6484C55.3125 6.55828 48.7542 0 40.6641 0C32.5739 0 26.0156 6.55828 26.0156 14.6484V22.5H33.0469V14.6483Z" fill="#F4FAFF"/>
</g>
<defs>
<clipPath id="clip0_84_261">
<rect width="60" height="60" fill="white"/>
</clipPath>
</defs>
</svg>
