<svg width="80" height="80" viewBox="0 0 80 80" fill="none" xmlns="http://www.w3.org/2000/svg">
<path d="M55.3953 0C55.5815 0 55.7677 0 55.9644 0C56.4211 5.64177 54.2676 9.85729 51.6505 12.91C49.0826 15.9417 45.5661 18.882 39.8787 18.4359C39.4993 12.8749 41.6562 8.97203 44.2698 5.92632C46.6938 3.08787 51.1376 0.562069 55.3953 0Z" fill="#072A33"/>
<path d="M72.6122 58.7219C72.6122 58.7781 72.6122 58.8273 72.6122 58.88C71.0138 63.7208 68.7339 67.8696 65.9517 71.7198C63.4118 75.2151 60.2994 79.919 54.7419 79.919C49.9397 79.919 46.75 76.8311 41.8284 76.7468C36.6222 76.6625 33.7592 79.3288 28.9992 79.9998C28.4547 79.9998 27.9101 79.9998 27.3762 79.9998C23.8808 79.4939 21.0599 76.7257 19.0049 74.2315C12.9451 66.8614 8.26232 57.3413 7.39111 45.1585C7.39111 43.9641 7.39111 42.7732 7.39111 41.5788C7.75997 32.8597 11.9966 25.7706 17.6278 22.335C20.5997 20.5083 24.6853 18.952 29.2345 19.6476C31.1842 19.9497 33.176 20.6172 34.922 21.2776C36.5765 21.9134 38.6457 23.0411 40.6059 22.9814C41.9338 22.9427 43.2546 22.2507 44.5931 21.7624C48.5135 20.3467 52.3566 18.7237 57.4223 19.486C63.5102 20.4064 67.8311 23.1113 70.5009 27.2847C65.351 30.5623 61.2795 35.5014 61.975 43.936C62.5933 51.5977 67.0477 56.0802 72.6122 58.7219Z" fill="#072A33"/>
</svg>
