<?xml version="1.0" encoding="UTF-8"?>
<!DOCTYPE svg PUBLIC "-//W3C//DTD SVG 1.1//EN" "http://www.w3.org/Graphics/SVG/1.1/DTD/svg11.dtd">
<svg xmlns="http://www.w3.org/2000/svg" xmlns:xlink="http://www.w3.org/1999/xlink" version="1.1" width="502px" height="470px" viewBox="-0.5 -0.5 502 470"><defs/><g><ellipse cx="142.5" cy="122" rx="65.5" ry="61" fill="#f0f0f0" stroke="none" pointer-events="all"/><rect x="116" y="80.5" width="69" height="83" fill="none" stroke="none" pointer-events="all"/><path d="M 152.77 94.73 L 152.78 91.17 L 124.88 91.17 L 124.88 94.73 Z M 156.33 140.97 L 146.58 131.49 L 156.33 122 L 162.68 122 L 155.05 129.11 L 178.15 129.11 L 178.15 133.86 L 155.05 133.86 L 162.68 140.97 Z M 154.05 150.46 L 154.05 145.71 L 176.63 145.71 L 169.02 138.6 L 175.36 138.6 L 185 148.09 L 175.36 157.57 L 169.02 157.57 L 176.63 150.46 Z M 116 163.5 L 116 85.2 C 116 82.74 118.13 80.5 121.11 80.5 L 156.69 80.5 C 159.43 80.5 161.66 82.78 161.66 85.16 L 161.66 118.44 L 154.68 118.44 L 141.37 131.36 L 149.87 139.79 L 124.88 139.79 L 124.88 143.34 L 150.25 143.34 L 150.25 150.46 L 124.88 150.46 L 124.88 154.01 L 161.66 154.01 L 161.66 163.5 Z" fill="#009999" stroke="none" pointer-events="all"/><rect x="441" y="0" width="28" height="48" fill="none" stroke="none" pointer-events="all"/><path d="M 446.44 8.24 L 463.56 8.24 L 463.56 6.17 L 446.44 6.17 Z M 446.44 36.35 L 463.56 36.35 L 463.56 34.29 L 446.44 34.29 Z M 441 48 L 441 2.71 C 441 1.39 442.27 0 444.09 0 L 465.94 0 C 467.6 0 469 1.27 469 2.72 L 469 48 Z M 446.44 42.51 L 463.56 42.51 L 463.56 40.46 L 446.44 40.46 Z" fill="#009999" stroke="none" pointer-events="all"/><ellipse cx="362.5" cy="122" rx="65.5" ry="61" fill="#f0f0f0" stroke="none" pointer-events="all"/><rect x="336" y="80.5" width="69" height="83" fill="none" stroke="none" pointer-events="all"/><path d="M 372.77 94.73 L 372.78 91.17 L 344.88 91.17 L 344.88 94.73 Z M 376.33 140.97 L 366.58 131.49 L 376.33 122 L 382.68 122 L 375.05 129.11 L 398.15 129.11 L 398.15 133.86 L 375.05 133.86 L 382.68 140.97 Z M 374.05 150.46 L 374.05 145.71 L 396.63 145.71 L 389.02 138.6 L 395.36 138.6 L 405 148.09 L 395.36 157.57 L 389.02 157.57 L 396.63 150.46 Z M 336 163.5 L 336 85.2 C 336 82.74 338.13 80.5 341.11 80.5 L 376.69 80.5 C 379.43 80.5 381.66 82.78 381.66 85.16 L 381.66 118.44 L 374.68 118.44 L 361.37 131.36 L 369.87 139.79 L 344.88 139.79 L 344.88 143.34 L 370.25 143.34 L 370.25 150.46 L 344.88 150.46 L 344.88 154.01 L 381.66 154.01 L 381.66 163.5 Z" fill="#009999" stroke="none" pointer-events="all"/><ellipse cx="142.5" cy="317" rx="65.5" ry="61" fill="#f0f0f0" stroke="none" pointer-events="all"/><rect x="116" y="275.5" width="69" height="83" fill="none" stroke="none" pointer-events="all"/><path d="M 152.77 289.73 L 152.78 286.17 L 124.88 286.17 L 124.88 289.73 Z M 156.33 335.97 L 146.58 326.49 L 156.33 317 L 162.68 317 L 155.05 324.11 L 178.15 324.11 L 178.15 328.86 L 155.05 328.86 L 162.68 335.97 Z M 154.05 345.46 L 154.05 340.71 L 176.63 340.71 L 169.02 333.6 L 175.36 333.6 L 185 343.09 L 175.36 352.57 L 169.02 352.57 L 176.63 345.46 Z M 116 358.5 L 116 280.2 C 116 277.74 118.13 275.5 121.11 275.5 L 156.69 275.5 C 159.43 275.5 161.66 277.78 161.66 280.16 L 161.66 313.44 L 154.68 313.44 L 141.37 326.36 L 149.87 334.79 L 124.88 334.79 L 124.88 338.34 L 150.25 338.34 L 150.25 345.46 L 124.88 345.46 L 124.88 349.01 L 161.66 349.01 L 161.66 358.5 Z" fill="#009999" stroke="none" pointer-events="all"/><ellipse cx="362.5" cy="317" rx="65.5" ry="61" fill="#f0f0f0" stroke="none" pointer-events="all"/><rect x="336" y="275.5" width="69" height="83" fill="none" stroke="none" pointer-events="all"/><path d="M 372.77 289.73 L 372.78 286.17 L 344.88 286.17 L 344.88 289.73 Z M 376.33 335.97 L 366.58 326.49 L 376.33 317 L 382.68 317 L 375.05 324.11 L 398.15 324.11 L 398.15 328.86 L 375.05 328.86 L 382.68 335.97 Z M 374.05 345.46 L 374.05 340.71 L 396.63 340.71 L 389.02 333.6 L 395.36 333.6 L 405 343.09 L 395.36 352.57 L 389.02 352.57 L 396.63 345.46 Z M 336 358.5 L 336 280.2 C 336 277.74 338.13 275.5 341.11 275.5 L 376.69 275.5 C 379.43 275.5 381.66 277.78 381.66 280.16 L 381.66 313.44 L 374.68 313.44 L 361.37 326.36 L 369.87 334.79 L 344.88 334.79 L 344.88 338.34 L 370.25 338.34 L 370.25 345.46 L 344.88 345.46 L 344.88 349.01 L 381.66 349.01 L 381.66 358.5 Z" fill="#009999" stroke="none" pointer-events="all"/><rect x="473" y="74" width="28" height="48" fill="none" stroke="none" pointer-events="all"/><path d="M 478.44 82.24 L 495.56 82.24 L 495.56 80.17 L 478.44 80.17 Z M 478.44 110.35 L 495.56 110.35 L 495.56 108.29 L 478.44 108.29 Z M 473 122 L 473 76.71 C 473 75.39 474.27 74 476.09 74 L 497.94 74 C 499.6 74 501 75.27 501 76.72 L 501 122 Z M 478.44 116.51 L 495.56 116.51 L 495.56 114.46 L 478.44 114.46 Z" fill="#009999" stroke="none" pointer-events="all"/><rect x="464" y="347" width="28" height="48" fill="none" stroke="none" pointer-events="all"/><path d="M 469.44 355.24 L 486.56 355.24 L 486.56 353.17 L 469.44 353.17 Z M 469.44 383.35 L 486.56 383.35 L 486.56 381.29 L 469.44 381.29 Z M 464 395 L 464 349.71 C 464 348.39 465.27 347 467.09 347 L 488.94 347 C 490.6 347 492 348.27 492 349.72 L 492 395 Z M 469.44 389.51 L 486.56 389.51 L 486.56 387.46 L 469.44 387.46 Z" fill="#009999" stroke="none" pointer-events="all"/><rect x="122" y="421" width="28" height="48" fill="none" stroke="none" pointer-events="all"/><path d="M 127.44 429.24 L 144.56 429.24 L 144.56 427.17 L 127.44 427.17 Z M 127.44 457.35 L 144.56 457.35 L 144.56 455.29 L 127.44 455.29 Z M 122 469 L 122 423.71 C 122 422.39 123.27 421 125.09 421 L 146.94 421 C 148.6 421 150 422.27 150 423.72 L 150 469 Z M 127.44 463.51 L 144.56 463.51 L 144.56 461.46 L 127.44 461.46 Z" fill="#009999" stroke="none" pointer-events="all"/><rect x="39" y="387" width="28" height="48" fill="none" stroke="none" pointer-events="all"/><path d="M 44.44 395.24 L 61.56 395.24 L 61.56 393.17 L 44.44 393.17 Z M 44.44 423.35 L 61.56 423.35 L 61.56 421.29 L 44.44 421.29 Z M 39 435 L 39 389.71 C 39 388.39 40.27 387 42.09 387 L 63.94 387 C 65.6 387 67 388.27 67 389.72 L 67 435 Z M 44.44 429.51 L 61.56 429.51 L 61.56 427.46 L 44.44 427.46 Z" fill="#009999" stroke="none" pointer-events="all"/><rect x="0" y="303" width="28" height="48" fill="none" stroke="none" pointer-events="all"/><path d="M 5.44 311.24 L 22.56 311.24 L 22.56 309.17 L 5.44 309.17 Z M 5.44 339.35 L 22.56 339.35 L 22.56 337.29 L 5.44 337.29 Z M 0 351 L 0 305.71 C 0 304.39 1.27 303 3.09 303 L 24.94 303 C 26.6 303 28 304.27 28 305.72 L 28 351 Z M 5.44 345.51 L 22.56 345.51 L 22.56 343.46 L 5.44 343.46 Z" fill="#009999" stroke="none" pointer-events="all"/><rect x="17" y="13" width="28" height="48" fill="none" stroke="none" pointer-events="all"/><path d="M 22.44 21.24 L 39.56 21.24 L 39.56 19.17 L 22.44 19.17 Z M 22.44 49.35 L 39.56 49.35 L 39.56 47.29 L 22.44 47.29 Z M 17 61 L 17 15.71 C 17 14.39 18.27 13 20.09 13 L 41.94 13 C 43.6 13 45 14.27 45 15.72 L 45 61 Z M 22.44 55.51 L 39.56 55.51 L 39.56 53.46 L 22.44 53.46 Z" fill="#009999" stroke="none" pointer-events="all"/><path d="M 53 57 L 77 77" fill="none" stroke="rgb(0, 0, 0)" stroke-width="3" stroke-miterlimit="10" pointer-events="stroke"/><path d="M 410 71 L 431 45" fill="none" stroke="rgb(0, 0, 0)" stroke-width="3" stroke-miterlimit="10" pointer-events="stroke"/><path d="M 435 115 L 467 109" fill="none" stroke="rgb(0, 0, 0)" stroke-width="3" stroke-miterlimit="10" pointer-events="stroke"/><path d="M 426 348 L 455 366" fill="none" stroke="rgb(0, 0, 0)" stroke-width="3" stroke-miterlimit="10" pointer-events="stroke"/><path d="M 136 384 L 136 415" fill="none" stroke="rgb(0, 0, 0)" stroke-width="3" stroke-miterlimit="10" pointer-events="stroke"/><path d="M 95 370 L 73 399" fill="none" stroke="rgb(0, 0, 0)" stroke-width="3" stroke-miterlimit="10" pointer-events="stroke"/><path d="M 73 313 L 36 328" fill="none" stroke="rgb(0, 0, 0)" stroke-width="3" stroke-miterlimit="10" pointer-events="stroke"/><path d="M 141 188 L 141 250" fill="none" stroke="rgb(0, 0, 0)" stroke-width="3" stroke-miterlimit="10" pointer-events="stroke"/><path d="M 292 117 L 213 117" fill="none" stroke="rgb(0, 0, 0)" stroke-width="3" stroke-miterlimit="10" pointer-events="stroke"/><path d="M 365 188 L 365 250" fill="none" stroke="rgb(0, 0, 0)" stroke-width="3" stroke-miterlimit="10" pointer-events="stroke"/><path d="M 292 316.7 L 213 316.7" fill="none" stroke="rgb(0, 0, 0)" stroke-width="3" stroke-miterlimit="10" pointer-events="stroke"/></g></svg>