<svg xmlns="http://www.w3.org/2000/svg" xmlns:xlink="http://www.w3.org/1999/xlink" viewBox="0,0,256,256" width="240px" height="240px" fill-rule="nonzero"><g fill="#dddddd" fill-rule="nonzero" stroke="#dddddd" stroke-width="1" stroke-linecap="butt" stroke-linejoin="round" stroke-miterlimit="10" stroke-dasharray="" stroke-dashoffset="0" font-family="none" font-weight="none" font-size="none" text-anchor="none" style="mix-blend-mode: normal"><path transform="scale(5.33333,5.33333)" d="M3.863,22.995c-0.166,-1.543 0.279,-3.03 1.221,-4.079c0.953,-1.062 2.297,-1.651 3.785,-1.658c0.009,0 0.018,0 0.027,0c1.05099,0 2.08443,0.2931 2.99983,0.84052c3.05257,-1.81547 6.90865,-2.96261 11.13022,-3.12785c0.124,-3.44525 0.83828,-8.67867 4.95295,-8.67867c2.154,0 3.193,1.211 3.952,2.096c0.629,0.734 0.961,1.086 1.616,1.086h0.38482c0.45537,-2.00332 2.24809,-3.499 4.38818,-3.499c2.487,0 4.5,2.015 4.5,4.5c0,2.485 -2.014,4.5 -4.5,4.5c-2.14081,0 -3.934,-1.49667 -4.38864,-3.501h-0.38436c-1.604,0 -2.453,-0.99 -3.135,-1.785c-0.67,-0.781 -1.198,-1.398 -2.434,-1.398c-1.77189,0.00088 -2.73932,2.18899 -2.93898,6.67577c4.2255,0.1489 8.08974,1.28151 11.15504,3.08461c0.90143,-0.50931 1.91218,-0.77316 2.93493,-0.79438c1.488,0.007 2.833,0.596 3.786,1.658c0.942,1.05 1.387,2.537 1.221,4.081c-0.12374,1.15258 -0.57999,2.22517 -1.29307,3.0834c0.21476,0.82038 0.32707,1.6666 0.32707,2.5316c0,7.546 -8.545,13.662 -19.085,13.662c-10.54,0 -19.085,-6.116 -19.085,-13.662c0,-0.81165 0.09887,-1.60676 0.28847,-2.3795c-0.7886,-0.88265 -1.29425,-2.01432 -1.42547,-3.2365z" id="strokeMainSVG"></path></g><g fill="none" fill-rule="nonzero" stroke="none" stroke-width="1" stroke-linecap="butt" stroke-linejoin="miter" stroke-miterlimit="10" stroke-dasharray="" stroke-dashoffset="0" font-family="none" font-weight="none" font-size="none" text-anchor="none" style="mix-blend-mode: normal"><g transform="scale(5.33333,5.33333)"><path d="M12.193,19.555c-1.94,-1.741 -4.79,-1.727 -6.365,0.029c-1.576,1.756 -1.301,5.023 0.926,6.632zM35.807,19.555c1.939,-1.741 4.789,-1.727 6.365,0.029c1.575,1.756 1.302,5.023 -0.927,6.632zM38.32,6.975c-1.933,0 -3.5,1.567 -3.5,3.5c0,1.933 1.567,3.5 3.5,3.5c1.933,0 3.5,-1.567 3.5,-3.5c0,-1.933 -1.567,-3.5 -3.5,-3.5z" fill="#ffffff"></path><path d="M24.085,15.665c-9.98807,0 -18.085,5.79612 -18.085,12.946c0,7.14988 8.09693,12.946 18.085,12.946c9.98807,0 18.085,-5.79612 18.085,-12.946c0,-7.14988 -8.09693,-12.946 -18.085,-12.946z" fill="#ffffff"></path><g fill="#d84315"><path d="M30.365,23.506c-1.59279,0 -2.884,1.29121 -2.884,2.884c0,1.59279 1.29121,2.884 2.884,2.884c1.59279,0 2.884,-1.29121 2.884,-2.884c0,-1.59279 -1.29121,-2.884 -2.884,-2.884zM17.635,23.506c-1.59279,0 -2.884,1.29121 -2.884,2.884c0,1.59279 1.29121,2.884 2.884,2.884c1.59279,0 2.884,-1.29121 2.884,-2.884c0,-1.59279 -1.29121,-2.884 -2.884,-2.884z"></path></g><g fill="#37474f"><path d="M24.002,34.902c-3.252,0 -6.14,-0.745 -8.002,-1.902c1.024,2.044 4.196,4 8.002,4c3.802,0 6.976,-1.956 7.998,-4c-1.857,1.157 -4.746,1.902 -7.998,1.902zM41.83,27.026l-1.17,-1.621c0.831,-0.6 1.373,-1.556 1.488,-2.623c0.105,-0.98 -0.157,-1.903 -0.721,-2.531c-0.571,-0.637 -1.391,-0.99 -2.307,-0.994c-0.927,0.013 -1.894,0.365 -2.646,1.041l-1.336,-1.488c1.123,-1.008 2.545,-1.523 3.991,-1.553c1.488,0.007 2.833,0.596 3.786,1.658c0.942,1.05 1.387,2.537 1.221,4.081c-0.175,1.63 -1.015,3.1 -2.306,4.03zM6.169,27.026c-1.29,-0.932 -2.131,-2.401 -2.306,-4.031c-0.166,-1.543 0.279,-3.03 1.221,-4.079c0.953,-1.062 2.297,-1.651 3.785,-1.658c0.009,0 0.018,0 0.027,0c1.441,0 2.849,0.551 3.965,1.553l-1.336,1.488c-0.753,-0.676 -1.689,-1.005 -2.646,-1.041c-0.916,0.004 -1.735,0.357 -2.306,0.994c-0.563,0.628 -0.826,1.55 -0.721,2.53c0.115,1.067 0.657,2.023 1.488,2.624zM25,16.84h-2c0,-2.885 0,-10.548 4.979,-10.548c2.154,0 3.193,1.211 3.952,2.096c0.629,0.734 0.961,1.086 1.616,1.086h1.37v2h-1.37c-1.604,0 -2.453,-0.99 -3.135,-1.785c-0.67,-0.781 -1.198,-1.398 -2.434,-1.398c-2.003,0.001 -2.978,2.797 -2.978,8.549z"></path><path d="M24.085,16.95c9.421,0 17.085,5.231 17.085,11.661c0,6.431 -7.664,11.662 -17.085,11.662c-9.421,0 -17.085,-5.231 -17.085,-11.662c0,-6.43 7.664,-11.661 17.085,-11.661M24.085,14.95c-10.541,0 -19.085,6.116 -19.085,13.661c0,7.546 8.545,13.662 19.085,13.662c10.54,0 19.085,-6.116 19.085,-13.662c0,-7.545 -8.545,-13.661 -19.085,-13.661zM38.32,7.975c1.379,0 2.5,1.122 2.5,2.5c0,1.378 -1.121,2.5 -2.5,2.5c-1.379,0 -2.5,-1.122 -2.5,-2.5c0,-1.378 1.121,-2.5 2.5,-2.5M38.32,5.975c-2.484,0 -4.5,2.015 -4.5,4.5c0,2.485 2.016,4.5 4.5,4.5c2.486,0 4.5,-2.015 4.5,-4.5c0,-2.485 -2.013,-4.5 -4.5,-4.5z"></path></g></g></g><g fill="none" fill-rule="nonzero" stroke="none" stroke-width="none" stroke-linecap="butt" stroke-linejoin="none" stroke-miterlimit="10" stroke-dasharray="" stroke-dashoffset="0" font-family="none" font-weight="none" font-size="none" text-anchor="none" style="mix-blend-mode: normal"><path d="M74.245,233.83667l-5.69,-11.11h-4.98v11.11h-6.25v-30.34h11.27c3.58,0 6.34333,0.8 8.29,2.4c1.94667,1.6 2.92,3.85667 2.92,6.77c0,2.06667 -0.45,3.79333 -1.35,5.18c-0.89333,1.38 -2.25,2.48 -4.07,3.3l6.56,12.4v0.29zM63.575,208.56667v9.1h5.04c1.56667,0 2.78333,-0.4 3.65,-1.2c0.86,-0.8 1.29,-1.9 1.29,-3.3c0,-1.43333 -0.40667,-2.55667 -1.22,-3.37c-0.81333,-0.82 -2.06,-1.23 -3.74,-1.23zM102.805,215.79667v4.89h-12v8.13h14.08v5.02h-20.33v-30.34h20.29v5.07h-14.04v7.23zM108.555,233.83667v-30.34h9.33c2.66667,0 5.05333,0.60333 7.16,1.81c2.1,1.2 3.74,2.90667 4.92,5.12c1.18667,2.21333 1.78,4.73 1.78,7.55v1.4c0,2.82 -0.58,5.32667 -1.74,7.52c-1.16,2.19333 -2.79667,3.89333 -4.91,5.1c-2.11333,1.21333 -4.49667,1.82667 -7.15,1.84zM114.805,208.56667v20.25h3.02c2.44667,0 4.31333,-0.8 5.6,-2.4c1.29333,-1.6 1.95333,-3.88333 1.98,-6.85v-1.61c0,-3.08 -0.63667,-5.41667 -1.91,-7.01c-1.28,-1.58667 -3.15,-2.38 -5.61,-2.38zM136.285,233.83667v-30.34h9.33c2.66667,0 5.05333,0.60333 7.16,1.81c2.1,1.2 3.74,2.90667 4.92,5.12c1.18,2.21333 1.77,4.73 1.77,7.55v1.4c0,2.82 -0.58,5.32667 -1.74,7.52c-1.15333,2.19333 -2.78667,3.89333 -4.9,5.1c-2.11333,1.21333 -4.49667,1.82667 -7.15,1.84zM142.535,208.56667v20.25h3.02c2.44,0 4.30667,-0.8 5.6,-2.4c1.29333,-1.6 1.95333,-3.88333 1.98,-6.85v-1.61c0,-3.08 -0.64,-5.41667 -1.92,-7.01c-1.27333,-1.58667 -3.14,-2.38 -5.6,-2.38zM170.655,203.49667v30.34h-6.25v-30.34zM198.675,203.49667v5.07h-9.29v25.27h-6.25v-25.27h-9.17v-5.07z" id="strokeMainSVG" fill="#dddddd" stroke="#dddddd" stroke-width="5.33333" stroke-linejoin="round"></path><g fill="#000000" stroke="none" stroke-width="1" stroke-linejoin="miter"><path d="M74.245,233.83667l-5.69,-11.11h-4.98v11.11h-6.25v-30.34h11.27c3.58,0 6.34333,0.8 8.29,2.4c1.94667,1.6 2.92,3.85667 2.92,6.77v0c0,2.06667 -0.45,3.79333 -1.35,5.18c-0.89333,1.38 -2.25,2.48 -4.07,3.3v0l6.56,12.4v0.29zM63.575,208.56667v9.1h5.04c1.56667,0 2.78333,-0.4 3.65,-1.2c0.86,-0.8 1.29,-1.9 1.29,-3.3v0c0,-1.43333 -0.40667,-2.55667 -1.22,-3.37c-0.81333,-0.82 -2.06,-1.23 -3.74,-1.23v0zM102.805,215.79667v4.89h-12v8.13h14.08v5.02h-20.33v-30.34h20.29v5.07h-14.04v7.23zM117.945,233.83667h-9.39v-30.34h9.33c2.66667,0 5.05333,0.60333 7.16,1.81c2.1,1.2 3.74,2.90667 4.92,5.12c1.18667,2.21333 1.78,4.73 1.78,7.55v0v1.4c0,2.82 -0.58,5.32667 -1.74,7.52c-1.16,2.19333 -2.79667,3.89333 -4.91,5.1c-2.11333,1.21333 -4.49667,1.82667 -7.15,1.84zM117.885,208.56667h-3.08v20.25h3.02c2.44667,0 4.31333,-0.8 5.6,-2.4c1.29333,-1.6 1.95333,-3.88333 1.98,-6.85v0v-1.61c0,-3.08 -0.63667,-5.41667 -1.91,-7.01c-1.28,-1.58667 -3.15,-2.38 -5.61,-2.38zM145.675,233.83667h-9.39v-30.34h9.33c2.66667,0 5.05333,0.60333 7.16,1.81c2.1,1.2 3.74,2.90667 4.92,5.12c1.18,2.21333 1.77,4.73 1.77,7.55v0v1.4c0,2.82 -0.58,5.32667 -1.74,7.52c-1.15333,2.19333 -2.78667,3.89333 -4.9,5.1c-2.11333,1.21333 -4.49667,1.82667 -7.15,1.84zM145.615,208.56667h-3.08v20.25h3.02c2.44,0 4.30667,-0.8 5.6,-2.4c1.29333,-1.6 1.95333,-3.88333 1.98,-6.85v0v-1.61c0,-3.08 -0.64,-5.41667 -1.92,-7.01c-1.27333,-1.58667 -3.14,-2.38 -5.6,-2.38zM170.655,203.49667v30.34h-6.25v-30.34zM198.675,203.49667v5.07h-9.29v25.27h-6.25v-25.27h-9.17v-5.07z"></path></g></g></svg>