<svg width="20" height="20" viewBox="0 0 20 20" fill="none" xmlns="http://www.w3.org/2000/svg">
<path d="M19.6339 10.884L15.2051 15.3128C14.961 15.5569 14.6411 15.6789 14.3212 15.6789C14.0013 15.6789 13.6814 15.5569 13.4373 15.3128C12.9491 14.8246 12.9491 14.0332 13.4373 13.545L15.7322 11.2501H1.25C0.559648 11.2501 0 10.6905 0 10.0001C0 9.30976 0.559648 8.75011 1.25 8.75011H15.7322L13.4373 6.45519C12.9491 5.96702 12.9491 5.17558 13.4373 4.68741C13.9255 4.19925 14.7169 4.19925 15.2051 4.68741L19.6339 9.11624C20.122 9.60437 20.122 10.3959 19.6339 10.884Z" fill="#072A33"/>
</svg>
