<svg width="300" height="300" viewBox="0 0 300 300" fill="none" xmlns="http://www.w3.org/2000/svg">
<g clip-path="url(#clip0_84_64)">
<path d="M84.2586 237.931H10.3448C4.63861 237.914 0.0170421 233.293 0 227.586V186.207C0.0170421 180.501 4.63861 175.879 10.3448 175.862H72.4138L84.2586 237.931Z" fill="#3B97D3"/>
<path d="M36.2071 217.241C41.9204 217.241 46.552 212.61 46.552 206.897C46.552 201.183 41.9204 196.552 36.2071 196.552C30.4938 196.552 25.8623 201.183 25.8623 206.897C25.8623 212.61 30.4938 217.241 36.2071 217.241Z" fill="#65DDB9"/>
<path d="M294.828 279.31C294.811 285.016 290.189 289.638 284.483 289.655H165.518C174.431 283.812 182.565 276.86 189.724 268.965H284.483C290.179 269.008 294.786 273.614 294.828 279.31Z" fill="#F0C419"/>
<path d="M134.483 289.655L10.345 289.655C7.60054 289.67 4.96805 288.568 3.05187 286.603C1.08708 284.687 -0.0144587 282.055 0.000143346 279.31C0.0171854 273.604 4.63875 268.982 10.345 268.965H110.328C117.481 276.847 125.596 283.798 134.483 289.655Z" fill="#F0C419"/>
<path d="M289.655 0H10.3448C4.63154 0 0 4.63154 0 10.3448V51.7241C0 57.4374 4.63154 62.069 10.3448 62.069H289.655C295.368 62.069 300 57.4374 300 51.7241V10.3448C300 4.63154 295.368 0 289.655 0Z" fill="#3B97D3"/>
<path d="M274.138 25.8619H227.586C224.73 25.8619 222.414 23.5461 222.414 20.6895C222.414 17.8329 224.73 15.5171 227.586 15.5171H274.138C276.995 15.5171 279.311 17.8329 279.311 20.6895C279.311 23.5461 276.995 25.8619 274.138 25.8619Z" fill="#285680"/>
<path d="M274.138 46.5519H227.586C224.73 46.5519 222.414 44.2361 222.414 41.3794C222.414 38.5228 224.73 36.207 227.586 36.207H274.138C276.995 36.207 279.311 38.5228 279.311 41.3794C279.311 44.2361 276.995 46.5519 274.138 46.5519Z" fill="#285680"/>
<path d="M206.897 25.8619H196.552C193.695 25.8619 191.379 23.5461 191.379 20.6895C191.379 17.8329 193.695 15.5171 196.552 15.5171H206.897C209.753 15.5171 212.069 17.8329 212.069 20.6895C212.069 23.5461 209.753 25.8619 206.897 25.8619Z" fill="#285680"/>
<path d="M206.897 46.5519H196.552C193.695 46.5519 191.379 44.2361 191.379 41.3794C191.379 38.5228 193.695 36.207 196.552 36.207H206.897C209.753 36.207 212.069 38.5228 212.069 41.3794C212.069 44.2361 209.753 46.5519 206.897 46.5519Z" fill="#285680"/>
<path d="M227.587 175.862H289.655C295.362 175.879 299.983 180.501 300 186.207V227.586C299.983 233.293 295.362 237.914 289.655 237.931H215.742L227.587 175.862Z" fill="#3B97D3"/>
<path d="M274.138 201.724H227.018C224.161 201.724 221.845 199.408 221.845 196.552C221.845 193.695 224.161 191.379 227.018 191.379H274.138C276.995 191.379 279.311 193.695 279.311 196.552C279.311 199.408 276.995 201.724 274.138 201.724Z" fill="#285680"/>
<path d="M274.138 222.414H223.294C220.437 222.414 218.121 220.098 218.121 217.241C218.121 214.385 220.437 212.069 223.294 212.069H274.138C276.995 212.069 279.311 214.385 279.311 217.241C279.311 220.098 276.995 222.414 274.138 222.414Z" fill="#285680"/>
<path d="M289.655 87.9312H10.3448C4.63154 87.9312 0 92.5627 0 98.276V139.655C0 145.369 4.63154 150 10.3448 150H289.655C295.368 150 300 145.369 300 139.655V98.276C300 92.5627 295.368 87.9312 289.655 87.9312Z" fill="#3B97D3"/>
<path d="M274.138 113.793H227.586C224.73 113.793 222.414 111.477 222.414 108.621C222.414 105.764 224.73 103.448 227.586 103.448H274.138C276.995 103.448 279.311 105.764 279.311 108.621C279.311 111.477 276.995 113.793 274.138 113.793Z" fill="#285680"/>
<path d="M274.138 134.483H243.104C240.247 134.483 237.931 132.167 237.931 129.31C237.931 126.453 240.247 124.138 243.104 124.138H274.138C276.995 124.138 279.31 126.453 279.31 129.31C279.31 132.167 276.995 134.483 274.138 134.483Z" fill="#285680"/>
<path d="M206.897 113.793H196.552C193.695 113.793 191.379 111.477 191.379 108.621C191.379 105.764 193.695 103.448 196.552 103.448H206.897C209.753 103.448 212.069 105.764 212.069 108.621C212.069 111.477 209.753 113.793 206.897 113.793Z" fill="#285680"/>
<path d="M227.587 143.172V184.914C227.552 215.998 215.955 245.958 195.052 268.965C187.892 276.86 179.758 283.812 170.845 289.655H170.793C165.263 293.344 159.432 296.563 153.362 299.276C151.229 300.258 148.772 300.258 146.638 299.276C130.825 292.137 116.652 281.82 105 268.965C100.858 264.391 97.0382 259.535 93.5693 254.431C90.0459 249.179 86.9332 243.662 84.2589 237.931C76.4543 221.346 72.4096 203.243 72.4141 184.914V143.172C72.4018 138.889 75.7416 135.345 80.0175 135.103C94.2934 134.172 125.328 130.448 144.88 115.552C147.897 113.224 152.104 113.224 155.121 115.552C174.673 130.448 205.707 134.172 219.983 135.103C224.259 135.345 227.599 138.889 227.587 143.172Z" fill="#BDC3C7"/>
<path d="M152.519 278.395C150.944 279.259 149.036 279.259 147.46 278.395C132.718 270.24 120.129 258.693 110.736 244.707C99.2197 227.564 93.0802 207.376 93.1036 186.724V161.001C93.0913 158.444 94.9603 156.267 97.4898 155.891C114.95 153.737 131.881 148.463 147.476 140.322C149.041 139.433 150.959 139.433 152.524 140.322C168.12 148.463 185.051 153.737 202.51 155.891C205.04 156.267 206.909 158.444 206.897 161.001V186.724C206.764 224.888 185.948 259.98 152.519 278.395Z" fill="#4FBA6F"/>
<path d="M160.345 196.552C157.488 196.552 155.173 194.236 155.173 191.379V181.034C155.173 178.178 152.857 175.862 150 175.862C147.144 175.862 144.828 178.178 144.828 181.034V191.379C144.828 194.236 142.512 196.552 139.655 196.552C136.799 196.552 134.483 194.236 134.483 191.379V181.034C134.483 172.464 141.43 165.517 150 165.517C158.57 165.517 165.517 172.464 165.517 181.034V191.379C165.517 194.236 163.202 196.552 160.345 196.552Z" fill="#D1D4D1"/>
<path d="M36.2071 41.3791C41.9204 41.3791 46.552 36.7476 46.552 31.0343C46.552 25.321 41.9204 20.6895 36.2071 20.6895C30.4938 20.6895 25.8623 25.321 25.8623 31.0343C25.8623 36.7476 30.4938 41.3791 36.2071 41.3791Z" fill="#65DDB9"/>
<path d="M77.5865 41.3791C83.2998 41.3791 87.9314 36.7476 87.9314 31.0343C87.9314 25.321 83.2998 20.6895 77.5865 20.6895C71.8732 20.6895 67.2417 25.321 67.2417 31.0343C67.2417 36.7476 71.8732 41.3791 77.5865 41.3791Z" fill="#65DDB9"/>
<path d="M118.966 41.3791C124.679 41.3791 129.311 36.7476 129.311 31.0343C129.311 25.321 124.679 20.6895 118.966 20.6895C113.253 20.6895 108.621 25.321 108.621 31.0343C108.621 36.7476 113.253 41.3791 118.966 41.3791Z" fill="#65DDB9"/>
<path d="M36.2071 129.31C41.9204 129.31 46.552 124.679 46.552 118.965C46.552 113.252 41.9204 108.621 36.2071 108.621C30.4938 108.621 25.8623 113.252 25.8623 118.965C25.8623 124.679 30.4938 129.31 36.2071 129.31Z" fill="#65DDB9"/>
<path d="M150 282.414C148.241 282.417 146.509 281.974 144.967 281.126C129.518 272.557 116.32 260.448 106.454 245.793C94.3553 227.801 87.9056 206.606 87.9312 184.924V159.176C87.9425 154.057 91.6965 149.715 96.7605 148.966C113.593 146.909 129.916 141.827 144.942 133.966C148.083 132.192 151.923 132.192 155.064 133.966C170.087 141.828 186.409 146.91 203.24 148.966C208.304 149.715 212.058 154.057 212.069 159.176V184.924C211.958 224.971 190.113 261.801 155.023 281.1C153.487 281.956 151.758 282.408 150 282.414ZM149.974 272.069H150C181.808 254.59 201.616 221.218 201.724 184.924V159.176C183.638 157 166.105 151.52 150 143.007C133.879 151.529 116.329 157.013 98.2243 159.186L98.2761 184.924C98.2541 204.542 104.09 223.719 115.035 240C123.982 253.298 135.952 264.288 149.964 272.069H149.974Z" fill="#ECF0F1"/>
<path d="M165.517 191.379H134.483C131.626 191.379 129.311 193.695 129.311 196.552V227.586C129.311 230.443 131.626 232.759 134.483 232.759H165.517C168.374 232.759 170.69 230.443 170.69 227.586V196.552C170.69 193.695 168.374 191.379 165.517 191.379Z" fill="#F3D55B"/>
<path d="M150 217.241C152.857 217.241 155.172 214.926 155.172 212.069C155.172 209.212 152.857 206.896 150 206.896C147.143 206.896 144.828 209.212 144.828 212.069C144.828 214.926 147.143 217.241 150 217.241Z" fill="#A56A43"/>
</g>
<defs>
<clipPath id="clip0_84_64">
<rect width="300" height="300" fill="white"/>
</clipPath>
</defs>
</svg>
