<svg xmlns="http://www.w3.org/2000/svg" xmlns:xlink="http://www.w3.org/1999/xlink" viewBox="0,0,256,256" width="240px" height="240px" fill-rule="nonzero"><g fill-opacity="0" fill="#dddddd" fill-rule="nonzero" stroke="none" stroke-width="1" stroke-linecap="butt" stroke-linejoin="miter" stroke-miterlimit="10" stroke-dasharray="" stroke-dashoffset="0" font-family="none" font-weight="none" font-size="none" text-anchor="none" style="mix-blend-mode: normal"><path d="M0,256v-256h256v256z" id="bgRectangle"></path></g><g fill-opacity="0.61961" fill="#dddddd" fill-rule="nonzero" stroke-opacity="0.61961" stroke="#dddddd" stroke-width="2" stroke-linecap="butt" stroke-linejoin="round" stroke-miterlimit="10" stroke-dasharray="" stroke-dashoffset="0" font-family="none" font-weight="none" font-size="none" text-anchor="none" style="mix-blend-mode: normal"><path transform="scale(5.33333,5.33333)" d="M33,19c0,2.209 -1.791,4 -4,4c-2.209,0 -4,-1.791 -4,-4c0,-1.259 0,-9.746 0,-11c0,-2.209 1.791,-4 4,-4c2.209,0 4,1.791 4,4c0,1.254 0,9.741 0,11zM43,19c0,2.209 -1.791,4 -4,4c-1.195,0 -4,0 -4,0c0,0 0,-2.986 0,-4c0,-2.209 1.791,-4 4,-4c2.209,0 4,1.791 4,4zM19,14c2.209,0 4,1.791 4,4c0,2.209 -1.791,4 -4,4c-1.259,0 -9.746,0 -11,0c-2.209,0 -4,-1.791 -4,-4c0,-2.209 1.791,-4 4,-4c1.254,0 9.741,0 11,0zM19,4c2.209,0 4,1.791 4,4c0,1.195 0,4 0,4c0,0 -2.986,0 -4,0c-2.209,0 -4,-1.791 -4,-4c0,-2.209 1.791,-4 4,-4zM14,28.022c0,-2.206 1.791,-3.994 4,-3.994c2.209,0 4,1.788 4,3.994c0,1.257 0,9.732 0,10.984c0,2.206 -1.791,3.994 -4,3.994c-2.209,0 -4,-1.788 -4,-3.994c0,-1.252 0,-9.727 0,-10.984zM4,28.022c0,-2.206 1.791,-3.994 4,-3.994c1.195,0 4,0 4,0c0,0 0,2.981 0,3.994c0,2.206 -1.791,3.994 -4,3.994c-2.209,0 -4,-1.788 -4,-3.994zM28,33c-2.209,0 -4,-1.791 -4,-4c0,-2.209 1.791,-4 4,-4c1.259,0 9.746,0 11,0c2.209,0 4,1.791 4,4c0,2.209 -1.791,4 -4,4c-1.254,0 -9.742,0 -11,0zM28,43c-2.209,0 -4,-1.791 -4,-4c0,-1.195 0,-4 0,-4c0,0 2.986,0 4,0c2.209,0 4,1.791 4,4c0,2.209 -1.791,4 -4,4z" id="strokeMainSVG"></path></g><g fill="none" fill-rule="nonzero" stroke="none" stroke-width="1" stroke-linecap="butt" stroke-linejoin="miter" stroke-miterlimit="10" stroke-dasharray="" stroke-dashoffset="0" font-family="none" font-weight="none" font-size="none" text-anchor="none" style="mix-blend-mode: normal"><g transform="scale(5.33333,5.33333)"><path d="M33,8c0,-2.209 -1.791,-4 -4,-4c-2.209,0 -4,1.791 -4,4c0,1.254 0,9.741 0,11c0,2.209 1.791,4 4,4c2.209,0 4,-1.791 4,-4c0,-1.259 0,-9.746 0,-11z" fill="#33d375"></path><path d="M43,19c0,2.209 -1.791,4 -4,4c-1.195,0 -4,0 -4,0c0,0 0,-2.986 0,-4c0,-2.209 1.791,-4 4,-4c2.209,0 4,1.791 4,4z" fill="#33d375"></path><path d="M8,14c-2.209,0 -4,1.791 -4,4c0,2.209 1.791,4 4,4c1.254,0 9.741,0 11,0c2.209,0 4,-1.791 4,-4c0,-2.209 -1.791,-4 -4,-4c-1.259,0 -9.746,0 -11,0z" fill="#40c4ff"></path><path d="M19,4c2.209,0 4,1.791 4,4c0,1.195 0,4 0,4c0,0 -2.986,0 -4,0c-2.209,0 -4,-1.791 -4,-4c0,-2.209 1.791,-4 4,-4z" fill="#40c4ff"></path><path d="M14,39.006c0,2.206 1.791,3.994 4,3.994c2.209,0 4,-1.788 4,-3.994c0,-1.252 0,-9.727 0,-10.984c0,-2.206 -1.791,-3.994 -4,-3.994c-2.209,0 -4,1.788 -4,3.994c0,1.257 0,9.732 0,10.984z" fill="#e91e63"></path><path d="M4,28.022c0,-2.206 1.791,-3.994 4,-3.994c1.195,0 4,0 4,0c0,0 0,2.981 0,3.994c0,2.206 -1.791,3.994 -4,3.994c-2.209,0 -4,-1.788 -4,-3.994z" fill="#e91e63"></path><path d="M39,33c2.209,0 4,-1.791 4,-4c0,-2.209 -1.791,-4 -4,-4c-1.254,0 -9.741,0 -11,0c-2.209,0 -4,1.791 -4,4c0,2.209 1.791,4 4,4c1.258,0 9.746,0 11,0z" fill="#ffc107"></path><path d="M28,43c-2.209,0 -4,-1.791 -4,-4c0,-1.195 0,-4 0,-4c0,0 2.986,0 4,0c2.209,0 4,1.791 4,4c0,2.209 -1.791,4 -4,4z" fill="#ffc107"></path></g></g><g fill="none" fill-rule="nonzero" stroke="none" stroke-width="none" stroke-linecap="butt" stroke-linejoin="none" stroke-miterlimit="10" stroke-dasharray="" stroke-dashoffset="0" font-family="none" font-weight="none" font-size="none" text-anchor="none" style="mix-blend-mode: normal"><path d="M79.045,225.87667c0,-1.18 -0.41667,-2.08667 -1.25,-2.72c-0.83333,-0.63333 -2.33333,-1.3 -4.5,-2c-2.16667,-0.7 -3.88333,-1.39 -5.15,-2.07c-3.44,-1.86 -5.16,-4.36667 -5.16,-7.52c0,-1.64 0.46,-3.10333 1.38,-4.39c0.92667,-1.28667 2.25333,-2.29 3.98,-3.01c1.72667,-0.72 3.66667,-1.08 5.82,-1.08c2.16667,0 4.09667,0.39 5.79,1.17c1.7,0.78667 3.01667,1.89667 3.95,3.33c0.94,1.42667 1.41,3.05 1.41,4.87h-6.25c0,-1.38667 -0.43667,-2.46667 -1.31,-3.24c-0.88,-0.76667 -2.11,-1.15 -3.69,-1.15c-1.52667,0 -2.71333,0.32 -3.56,0.96c-0.84667,0.64667 -1.27,1.5 -1.27,2.56c0,0.98667 0.49333,1.81333 1.48,2.48c0.99333,0.66667 2.45667,1.29 4.39,1.87c3.55333,1.07333 6.14333,2.4 7.77,3.98c1.62667,1.58667 2.44,3.56 2.44,5.92c0,2.62 -0.99333,4.67667 -2.98,6.17c-1.98667,1.49333 -4.66,2.24 -8.02,2.24c-2.33333,0 -4.46,-0.42667 -6.38,-1.28c-1.91333,-0.85333 -3.37333,-2.02333 -4.38,-3.51c-1.00667,-1.48667 -1.51,-3.20667 -1.51,-5.16h6.27c0,3.34667 2,5.02 6,5.02c1.48667,0 2.64667,-0.30333 3.48,-0.91c0.83333,-0.60667 1.25,-1.45 1.25,-2.53zM95.795,203.49667v25.32h13.27v5.02h-19.52v-30.34zM132.275,233.83667l-2.11,-6.25h-10.96l-2.08,6.25h-6.64l11.29,-30.34h5.79l11.35,30.34zM124.665,211.16667l-3.77,11.35h7.59zM165.125,223.72667c-0.23333,3.26667 -1.43667,5.83667 -3.61,7.71c-2.17333,1.87333 -5.04,2.81 -8.6,2.81c-3.88667,0 -6.94333,-1.30667 -9.17,-3.92c-2.23333,-2.62 -3.35,-6.21333 -3.35,-10.78v-1.86c0,-2.91333 0.51333,-5.48333 1.54,-7.71c1.03333,-2.22 2.50333,-3.92333 4.41,-5.11c1.90667,-1.18667 4.12667,-1.78 6.66,-1.78c3.5,0 6.31667,0.93667 8.45,2.81c2.14,1.87333 3.37667,4.50667 3.71,7.9h-6.25c-0.15333,-1.96 -0.69667,-3.38333 -1.63,-4.27c-0.94,-0.88 -2.36667,-1.32 -4.28,-1.32c-2.08667,0 -3.64667,0.74667 -4.68,2.24c-1.03333,1.49333 -1.56333,3.81 -1.59,6.95v2.29c0,3.28 0.49333,5.67667 1.48,7.19c0.99333,1.51333 2.56,2.27 4.7,2.27c1.93333,0 3.37667,-0.44 4.33,-1.32c0.94667,-0.88667 1.49,-2.25333 1.63,-4.1zM186.525,233.83667l-7.8,-12.17l-3.25,3.5v8.67h-6.25v-30.34h6.25v13.75l2.75,-3.77l7.73,-9.98h7.69l-10.77,13.48l11.08,16.86z" id="strokeMainSVG" fill-opacity="0.61961" fill="#dddddd" stroke-opacity="0.61961" stroke="#dddddd" stroke-width="10.66667" stroke-linejoin="round"></path><g fill="#000000" stroke="none" stroke-width="1" stroke-linejoin="miter"><path d="M79.045,225.87667v0c0,-1.18 -0.41667,-2.08667 -1.25,-2.72c-0.83333,-0.63333 -2.33333,-1.3 -4.5,-2c-2.16667,-0.7 -3.88333,-1.39 -5.15,-2.07v0c-3.44,-1.86 -5.16,-4.36667 -5.16,-7.52v0c0,-1.64 0.46,-3.10333 1.38,-4.39c0.92667,-1.28667 2.25333,-2.29 3.98,-3.01c1.72667,-0.72 3.66667,-1.08 5.82,-1.08v0c2.16667,0 4.09667,0.39 5.79,1.17c1.7,0.78667 3.01667,1.89667 3.95,3.33c0.94,1.42667 1.41,3.05 1.41,4.87v0h-6.25c0,-1.38667 -0.43667,-2.46667 -1.31,-3.24c-0.88,-0.76667 -2.11,-1.15 -3.69,-1.15v0c-1.52667,0 -2.71333,0.32 -3.56,0.96c-0.84667,0.64667 -1.27,1.5 -1.27,2.56v0c0,0.98667 0.49333,1.81333 1.48,2.48c0.99333,0.66667 2.45667,1.29 4.39,1.87v0c3.55333,1.07333 6.14333,2.4 7.77,3.98c1.62667,1.58667 2.44,3.56 2.44,5.92v0c0,2.62 -0.99333,4.67667 -2.98,6.17c-1.98667,1.49333 -4.66,2.24 -8.02,2.24v0c-2.33333,0 -4.46,-0.42667 -6.38,-1.28c-1.91333,-0.85333 -3.37333,-2.02333 -4.38,-3.51c-1.00667,-1.48667 -1.51,-3.20667 -1.51,-5.16v0h6.27c0,3.34667 2,5.02 6,5.02v0c1.48667,0 2.64667,-0.30333 3.48,-0.91c0.83333,-0.60667 1.25,-1.45 1.25,-2.53zM95.795,203.49667v25.32h13.27v5.02h-19.52v-30.34zM132.275,233.83667l-2.11,-6.25h-10.96l-2.08,6.25h-6.64l11.29,-30.34h5.79l11.35,30.34zM124.665,211.16667l-3.77,11.35h7.59zM158.875,223.72667h6.25c-0.23333,3.26667 -1.43667,5.83667 -3.61,7.71c-2.17333,1.87333 -5.04,2.81 -8.6,2.81v0c-3.88667,0 -6.94333,-1.30667 -9.17,-3.92c-2.23333,-2.62 -3.35,-6.21333 -3.35,-10.78v0v-1.86c0,-2.91333 0.51333,-5.48333 1.54,-7.71c1.03333,-2.22 2.50333,-3.92333 4.41,-5.11c1.90667,-1.18667 4.12667,-1.78 6.66,-1.78v0c3.5,0 6.31667,0.93667 8.45,2.81c2.14,1.87333 3.37667,4.50667 3.71,7.9v0h-6.25c-0.15333,-1.96 -0.69667,-3.38333 -1.63,-4.27c-0.94,-0.88 -2.36667,-1.32 -4.28,-1.32v0c-2.08667,0 -3.64667,0.74667 -4.68,2.24c-1.03333,1.49333 -1.56333,3.81 -1.59,6.95v0v2.29c0,3.28 0.49333,5.67667 1.48,7.19c0.99333,1.51333 2.56,2.27 4.7,2.27v0c1.93333,0 3.37667,-0.44 4.33,-1.32c0.94667,-0.88667 1.49,-2.25333 1.63,-4.1zM186.525,233.83667l-7.8,-12.17l-3.25,3.5v8.67h-6.25v-30.34h6.25v13.75l2.75,-3.77l7.73,-9.98h7.69l-10.77,13.48l11.08,16.86z"></path></g></g></svg>