<svg xmlns="http://www.w3.org/2000/svg" xmlns:xlink="http://www.w3.org/1999/xlink" viewBox="0,0,256,256" width="240px" height="240px" fill-rule="nonzero"><g fill="none" fill-rule="nonzero" stroke="none" stroke-width="1" stroke-linecap="butt" stroke-linejoin="none" stroke-miterlimit="10" stroke-dasharray="" stroke-dashoffset="0" font-family="none" font-weight="none" font-size="none" text-anchor="none" style="mix-blend-mode: normal"><path transform="scale(5.33333,5.33333)" d="M44,24c0,11.04569 -8.95431,20 -20,20c-11.04569,0 -20,-8.95431 -20,-20c0,-11.04569 8.95431,-20 20,-20c11.04569,0 20,8.95431 20,20z" id="strokeMainSVG" fill="#dddddd" stroke="#dddddd" stroke-linejoin="round"></path><g transform="scale(5.33333,5.33333)" stroke="none" stroke-linejoin="miter"><path d="M24,4c-11.04569,0 -20,8.95431 -20,20c0,11.04569 8.95431,20 20,20c11.04569,0 20,-8.95431 20,-20c0,-11.04569 -8.95431,-20 -20,-20z" fill="#29b6f6"></path><path d="M33.95,15l-3.746,19.126c0,0 -0.161,0.874 -1.245,0.874c-0.576,0 -0.873,-0.274 -0.873,-0.274l-8.114,-6.733l-3.97,-2.001l-5.095,-1.355c0,0 -0.907,-0.262 -0.907,-1.012c0,-0.625 0.933,-0.923 0.933,-0.923l21.316,-8.468c-0.001,-0.001 0.651,-0.235 1.126,-0.234c0.292,0 0.625,0.125 0.625,0.5c0,0.25 -0.05,0.5 -0.05,0.5z" fill="#ffffff"></path><path d="M23,30.505l-3.426,3.374c0,0 -0.149,0.115 -0.348,0.12c-0.069,0.002 -0.143,-0.009 -0.219,-0.043l0.964,-5.965z" fill="#b0bec5"></path><path d="M29.897,18.196c-0.169,-0.22 -0.481,-0.26 -0.701,-0.093l-13.196,7.897c0,0 2.106,5.892 2.427,6.912c0.322,1.021 0.58,1.045 0.58,1.045l0.964,-5.965l9.832,-9.096c0.22,-0.167 0.261,-0.48 0.094,-0.7z" fill="#cfd8dc"></path></g></g><g fill="none" fill-rule="nonzero" stroke="none" stroke-width="none" stroke-linecap="butt" stroke-linejoin="none" stroke-miterlimit="10" stroke-dasharray="" stroke-dashoffset="0" font-family="none" font-weight="none" font-size="none" text-anchor="none" style="mix-blend-mode: normal"><path d="M64.74,211.225v5.07h-9.29v25.27h-6.25v-25.27h-9.17v-5.07zM76.43,241.975c-3.30667,0 -5.99667,-1.01333 -8.07,-3.04c-2.08,-2.02667 -3.12,-4.72667 -3.12,-8.1v-0.59c0,-2.26 0.43667,-4.28333 1.31,-6.07c0.88,-1.78667 2.12,-3.16 3.72,-4.12c1.60667,-0.96667 3.43667,-1.45 5.49,-1.45c3.08667,0 5.51333,0.97333 7.28,2.92c1.77333,1.94 2.66,4.69667 2.66,8.27v2.45h-14.35c0.19333,1.47333 0.78,2.65667 1.76,3.55c0.98,0.88667 2.22,1.33 3.72,1.33c2.31333,0 4.12333,-0.84 5.43,-2.52l2.96,3.31c-0.9,1.28 -2.12333,2.27667 -3.67,2.99c-1.54,0.71333 -3.24667,1.07 -5.12,1.07zM75.74,223.475c-1.19333,0 -2.16,0.40333 -2.9,1.21c-0.74667,0.80667 -1.22333,1.96 -1.43,3.46h8.37v-0.48c-0.02667,-1.33333 -0.38667,-2.36333 -1.08,-3.09c-0.69333,-0.73333 -1.68,-1.1 -2.96,-1.1zM95.47,209.565v32h-6.04v-32zM110.8,241.975c-3.3,0 -5.99,-1.01333 -8.07,-3.04c-2.07333,-2.02667 -3.11,-4.72667 -3.11,-8.1v-0.59c0,-2.26 0.43667,-4.28333 1.31,-6.07c0.87333,-1.78667 2.11333,-3.16 3.72,-4.12c1.6,-0.96667 3.43,-1.45 5.49,-1.45c3.08,0 5.50667,0.97333 7.28,2.92c1.77333,1.94 2.66,4.69667 2.66,8.27v2.45h-14.36c0.19333,1.47333 0.78,2.65667 1.76,3.55c0.98,0.88667 2.22,1.33 3.72,1.33c2.32,0 4.13333,-0.84 5.44,-2.52l2.96,3.31c-0.90667,1.28 -2.13,2.27667 -3.67,2.99c-1.54,0.71333 -3.25,1.07 -5.13,1.07zM110.12,223.475c-1.19333,0 -2.16333,0.40333 -2.91,1.21c-0.74,0.80667 -1.21667,1.96 -1.43,3.46h8.38v-0.48c-0.02667,-1.33333 -0.38667,-2.36333 -1.08,-3.09c-0.7,-0.73333 -1.68667,-1.1 -2.96,-1.1zM122.62,230.125c0,-3.46 0.82333,-6.24333 2.47,-8.35c1.64,-2.11333 3.85667,-3.17 6.65,-3.17c2.47333,0 4.39667,0.84667 5.77,2.54l0.25,-2.12h5.46v21.79c0,1.97333 -0.44667,3.68667 -1.34,5.14c-0.9,1.46 -2.16,2.57333 -3.78,3.34c-1.62667,0.76 -3.53,1.14 -5.71,1.14c-1.65333,0 -3.26667,-0.33 -4.84,-0.99c-1.56667,-0.66 -2.75333,-1.51 -3.56,-2.55l2.67,-3.67c1.5,1.68 3.32,2.52 5.46,2.52c1.59333,0 2.83667,-0.42667 3.73,-1.28c0.88667,-0.85333 1.33,-2.06333 1.33,-3.63v-1.21c-1.38667,1.56667 -3.21333,2.35 -5.48,2.35c-2.70667,0 -4.89667,-1.05667 -6.57,-3.17c-1.67333,-2.12 -2.51,-4.93 -2.51,-8.43zM128.64,230.565c0,2.04 0.41,3.64 1.23,4.8c0.82,1.16 1.94333,1.74 3.37,1.74c1.83333,0 3.14667,-0.68667 3.94,-2.06v-9.48c-0.80667,-1.38 -2.10667,-2.07 -3.9,-2.07c-1.44,0 -2.57333,0.59333 -3.4,1.78c-0.82667,1.18 -1.24,2.94333 -1.24,5.29zM160.51,224.665c-0.82,-0.11333 -1.54,-0.17 -2.16,-0.17c-2.28,0 -3.77333,0.77333 -4.48,2.32v14.75h-6.02v-22.54h5.68l0.17,2.68c1.20667,-2.06667 2.88,-3.1 5.02,-3.1c0.66667,0 1.29333,0.09 1.88,0.27zM181.93,241.565h-6.08c-0.28,-0.54667 -0.48333,-1.22 -0.61,-2.02c-1.46,1.62 -3.35667,2.43 -5.69,2.43c-2.20667,0 -4.03667,-0.63667 -5.49,-1.91c-1.44667,-1.28 -2.17,-2.89333 -2.17,-4.84c0,-2.38667 0.88333,-4.22 2.65,-5.5c1.77333,-1.27333 4.33333,-1.91667 7.68,-1.93h2.77v-1.3c0,-1.04 -0.26667,-1.87333 -0.8,-2.5c-0.53333,-0.62 -1.37667,-0.93 -2.53,-0.93c-1.01333,0 -1.81,0.24333 -2.39,0.73c-0.57333,0.48667 -0.86,1.15333 -0.86,2h-6.02c0,-1.30667 0.40333,-2.51667 1.21,-3.63c0.8,-1.11333 1.93667,-1.98333 3.41,-2.61c1.47333,-0.63333 3.12667,-0.95 4.96,-0.95c2.78,0 4.98667,0.69667 6.62,2.09c1.62667,1.4 2.44,3.36333 2.44,5.89v9.77c0.01333,2.14 0.31333,3.75667 0.9,4.85zM170.87,237.375c0.88667,0 1.70333,-0.19667 2.45,-0.59c0.75333,-0.4 1.31,-0.93333 1.67,-1.6v-3.87h-2.25c-3.01333,0 -4.61667,1.04 -4.81,3.12l-0.02,0.36c0,0.74667 0.26333,1.36333 0.79,1.85c0.52667,0.48667 1.25,0.73 2.17,0.73zM185.66,219.025h5.64l0.19,2.52c1.6,-1.96 3.76,-2.94 6.48,-2.94c2.9,0 4.89333,1.14667 5.98,3.44c1.58,-2.29333 3.83667,-3.44 6.77,-3.44c2.44667,0 4.26667,0.71 5.46,2.13c1.19333,1.42667 1.79,3.57 1.79,6.43v14.4h-6.04v-14.38c0,-1.27333 -0.25,-2.20667 -0.75,-2.8c-0.5,-0.59333 -1.38333,-0.89 -2.65,-0.89c-1.80667,0 -3.05667,0.86333 -3.75,2.59l0.02,15.48h-6.02v-14.36c0,-1.30667 -0.25667,-2.25 -0.77,-2.83c-0.51333,-0.58667 -1.38667,-0.88 -2.62,-0.88c-1.71333,0 -2.95,0.71 -3.71,2.13v15.94h-6.02z" id="strokeMainSVG" fill="#dddddd" stroke="#dddddd" stroke-width="5.33333" stroke-linejoin="round"></path><g fill="#000000" stroke="none" stroke-width="1" stroke-linejoin="miter"><path d="M64.74,211.225v5.07h-9.29v25.27h-6.25v-25.27h-9.17v-5.07zM76.43,241.975v0c-3.30667,0 -5.99667,-1.01333 -8.07,-3.04c-2.08,-2.02667 -3.12,-4.72667 -3.12,-8.1v0v-0.59c0,-2.26 0.43667,-4.28333 1.31,-6.07c0.88,-1.78667 2.12,-3.16 3.72,-4.12c1.60667,-0.96667 3.43667,-1.45 5.49,-1.45v0c3.08667,0 5.51333,0.97333 7.28,2.92c1.77333,1.94 2.66,4.69667 2.66,8.27v0v2.45h-14.35c0.19333,1.47333 0.78,2.65667 1.76,3.55c0.98,0.88667 2.22,1.33 3.72,1.33v0c2.31333,0 4.12333,-0.84 5.43,-2.52v0l2.96,3.31c-0.9,1.28 -2.12333,2.27667 -3.67,2.99c-1.54,0.71333 -3.24667,1.07 -5.12,1.07zM75.74,223.475v0c-1.19333,0 -2.16,0.40333 -2.9,1.21c-0.74667,0.80667 -1.22333,1.96 -1.43,3.46v0h8.37v-0.48c-0.02667,-1.33333 -0.38667,-2.36333 -1.08,-3.09c-0.69333,-0.73333 -1.68,-1.1 -2.96,-1.1zM95.47,209.565v32h-6.04v-32zM110.8,241.975v0c-3.3,0 -5.99,-1.01333 -8.07,-3.04c-2.07333,-2.02667 -3.11,-4.72667 -3.11,-8.1v0v-0.59c0,-2.26 0.43667,-4.28333 1.31,-6.07c0.87333,-1.78667 2.11333,-3.16 3.72,-4.12c1.6,-0.96667 3.43,-1.45 5.49,-1.45v0c3.08,0 5.50667,0.97333 7.28,2.92c1.77333,1.94 2.66,4.69667 2.66,8.27v0v2.45h-14.36c0.19333,1.47333 0.78,2.65667 1.76,3.55c0.98,0.88667 2.22,1.33 3.72,1.33v0c2.32,0 4.13333,-0.84 5.44,-2.52v0l2.96,3.31c-0.90667,1.28 -2.13,2.27667 -3.67,2.99c-1.54,0.71333 -3.25,1.07 -5.13,1.07zM110.12,223.475v0c-1.19333,0 -2.16333,0.40333 -2.91,1.21c-0.74,0.80667 -1.21667,1.96 -1.43,3.46v0h8.38v-0.48c-0.02667,-1.33333 -0.38667,-2.36333 -1.08,-3.09c-0.7,-0.73333 -1.68667,-1.1 -2.96,-1.1zM122.62,230.375v-0.25c0,-3.46 0.82333,-6.24333 2.47,-8.35c1.64,-2.11333 3.85667,-3.17 6.65,-3.17v0c2.47333,0 4.39667,0.84667 5.77,2.54v0l0.25,-2.12h5.46v21.79c0,1.97333 -0.44667,3.68667 -1.34,5.14c-0.9,1.46 -2.16,2.57333 -3.78,3.34c-1.62667,0.76 -3.53,1.14 -5.71,1.14v0c-1.65333,0 -3.26667,-0.33 -4.84,-0.99c-1.56667,-0.66 -2.75333,-1.51 -3.56,-2.55v0l2.67,-3.67c1.5,1.68 3.32,2.52 5.46,2.52v0c1.59333,0 2.83667,-0.42667 3.73,-1.28c0.88667,-0.85333 1.33,-2.06333 1.33,-3.63v0v-1.21c-1.38667,1.56667 -3.21333,2.35 -5.48,2.35v0c-2.70667,0 -4.89667,-1.05667 -6.57,-3.17c-1.67333,-2.12 -2.51,-4.93 -2.51,-8.43zM128.64,230.565v0c0,2.04 0.41,3.64 1.23,4.8c0.82,1.16 1.94333,1.74 3.37,1.74v0c1.83333,0 3.14667,-0.68667 3.94,-2.06v0v-9.48c-0.80667,-1.38 -2.10667,-2.07 -3.9,-2.07v0c-1.44,0 -2.57333,0.59333 -3.4,1.78c-0.82667,1.18 -1.24,2.94333 -1.24,5.29zM160.6,218.875l-0.09,5.79c-0.82,-0.11333 -1.54,-0.17 -2.16,-0.17v0c-2.28,0 -3.77333,0.77333 -4.48,2.32v0v14.75h-6.02v-22.54h5.68l0.17,2.68c1.20667,-2.06667 2.88,-3.1 5.02,-3.1v0c0.66667,0 1.29333,0.09 1.88,0.27zM181.93,241.565h-6.08c-0.28,-0.54667 -0.48333,-1.22 -0.61,-2.02v0c-1.46,1.62 -3.35667,2.43 -5.69,2.43v0c-2.20667,0 -4.03667,-0.63667 -5.49,-1.91c-1.44667,-1.28 -2.17,-2.89333 -2.17,-4.84v0c0,-2.38667 0.88333,-4.22 2.65,-5.5c1.77333,-1.27333 4.33333,-1.91667 7.68,-1.93v0h2.77v-1.3c0,-1.04 -0.26667,-1.87333 -0.8,-2.5c-0.53333,-0.62 -1.37667,-0.93 -2.53,-0.93v0c-1.01333,0 -1.81,0.24333 -2.39,0.73c-0.57333,0.48667 -0.86,1.15333 -0.86,2v0h-6.02c0,-1.30667 0.40333,-2.51667 1.21,-3.63c0.8,-1.11333 1.93667,-1.98333 3.41,-2.61c1.47333,-0.63333 3.12667,-0.95 4.96,-0.95v0c2.78,0 4.98667,0.69667 6.62,2.09c1.62667,1.4 2.44,3.36333 2.44,5.89v0v9.77c0.01333,2.14 0.31333,3.75667 0.9,4.85v0zM170.87,237.375v0c0.88667,0 1.70333,-0.19667 2.45,-0.59c0.75333,-0.4 1.31,-0.93333 1.67,-1.6v0v-3.87h-2.25c-3.01333,0 -4.61667,1.04 -4.81,3.12v0l-0.02,0.36c0,0.74667 0.26333,1.36333 0.79,1.85c0.52667,0.48667 1.25,0.73 2.17,0.73zM185.66,219.025h5.64l0.19,2.52c1.6,-1.96 3.76,-2.94 6.48,-2.94v0c2.9,0 4.89333,1.14667 5.98,3.44v0c1.58,-2.29333 3.83667,-3.44 6.77,-3.44v0c2.44667,0 4.26667,0.71 5.46,2.13c1.19333,1.42667 1.79,3.57 1.79,6.43v0v14.4h-6.04v-14.38c0,-1.27333 -0.25,-2.20667 -0.75,-2.8c-0.5,-0.59333 -1.38333,-0.89 -2.65,-0.89v0c-1.80667,0 -3.05667,0.86333 -3.75,2.59v0l0.02,15.48h-6.02v-14.36c0,-1.30667 -0.25667,-2.25 -0.77,-2.83c-0.51333,-0.58667 -1.38667,-0.88 -2.62,-0.88v0c-1.71333,0 -2.95,0.71 -3.71,2.13v0v15.94h-6.02z"></path></g></g></svg>