<svg xmlns="http://www.w3.org/2000/svg" xmlns:xlink="http://www.w3.org/1999/xlink" viewBox="0,0,256,256" width="240px" height="240px" fill-rule="nonzero"><g fill-opacity="0" fill="#dddddd" fill-rule="nonzero" stroke="none" stroke-width="1" stroke-linecap="butt" stroke-linejoin="miter" stroke-miterlimit="10" stroke-dasharray="" stroke-dashoffset="0" font-family="none" font-weight="none" font-size="none" text-anchor="none" style="mix-blend-mode: normal"><path d="M0,256v-256h256v256z" id="bgRectangle"></path></g><g fill="#03a9f4" fill-rule="nonzero" stroke="none" stroke-width="1" stroke-linecap="butt" stroke-linejoin="miter" stroke-miterlimit="10" stroke-dasharray="" stroke-dashoffset="0" font-family="none" font-weight="none" font-size="none" text-anchor="none" style="mix-blend-mode: normal"><g transform="scale(5.33333,5.33333)"><path d="M42,12.429c-1.323,0.586 -2.746,0.977 -4.247,1.162c1.526,-0.906 2.7,-2.351 3.251,-4.058c-1.428,0.837 -3.01,1.452 -4.693,1.776c-1.344,-1.425 -3.261,-2.309 -5.385,-2.309c-4.08,0 -7.387,3.278 -7.387,7.32c0,0.572 0.067,1.129 0.193,1.67c-6.138,-0.308 -11.582,-3.226 -15.224,-7.654c-0.64,1.082 -1,2.349 -1,3.686c0,2.541 1.301,4.778 3.285,6.096c-1.211,-0.037 -2.351,-0.374 -3.349,-0.914c0,0.022 0,0.055 0,0.086c0,3.551 2.547,6.508 5.923,7.181c-0.617,0.169 -1.269,0.263 -1.941,0.263c-0.477,0 -0.942,-0.054 -1.392,-0.135c0.94,2.902 3.667,5.023 6.898,5.086c-2.528,1.96 -5.712,3.134 -9.174,3.134c-0.598,0 -1.183,-0.034 -1.761,-0.104c3.271,2.071 7.155,3.285 11.324,3.285c13.585,0 21.017,-11.156 21.017,-20.834c0,-0.317 -0.01,-0.633 -0.025,-0.945c1.45,-1.024 2.7,-2.316 3.687,-3.792"></path></g></g><g fill="#000000" fill-rule="nonzero" stroke="none" stroke-width="1" stroke-linecap="butt" stroke-linejoin="miter" stroke-miterlimit="10" stroke-dasharray="" stroke-dashoffset="0" font-family="none" font-weight="none" font-size="none" text-anchor="none" style="mix-blend-mode: normal"><g><path d="M68.80333,187.49667v5.07h-9.29v25.27h-6.25v-25.27h-9.17v-5.07zM91.32333,187.49667l4.98,21.59l4.09,-21.59h6.22l-6.72,30.34h-6.3l-4.93,-20.29l-4.94,20.29h-6.29l-6.73,-30.34h6.23l4.1,21.55l5,-21.55zM116.64333,187.49667v30.34h-6.25v-30.34zM144.66333,187.49667v5.07h-9.3v25.27h-6.25v-25.27h-9.16v-5.07zM171.38333,187.49667v5.07h-9.29v25.27h-6.25v-25.27h-9.16v-5.07zM193.20333,199.79667v4.89h-12v8.13h14.08v5.02h-20.33v-30.34h20.29v5.07h-14.04v7.23zM215.86333,217.83667l-5.68,-11.11h-4.98v11.11h-6.25v-30.34h11.27c3.58,0 6.34333,0.8 8.29,2.4c1.94667,1.6 2.92,3.85667 2.92,6.77v0c0,2.06667 -0.45,3.79333 -1.35,5.18c-0.89333,1.38 -2.25,2.48 -4.07,3.3v0l6.56,12.4v0.29zM205.20333,192.56667v9.1h5.04c1.56667,0 2.78333,-0.4 3.65,-1.2c0.86,-0.8 1.29,-1.9 1.29,-3.3v0c0,-1.43333 -0.40667,-2.55667 -1.22,-3.37c-0.81333,-0.82 -2.06,-1.23 -3.74,-1.23v0z"></path></g></g></svg>