<svg width="40" height="40" viewBox="0 0 40 40" fill="none" xmlns="http://www.w3.org/2000/svg">
<g clip-path="url(#clip0_84_316)">
<path d="M39.9988 26.2459H39.9996L39.9988 22.6357C39.9988 21.9865 39.4723 21.46 38.8223 21.46L35.2129 21.4607C35.2137 24.0998 37.3598 26.2459 39.9988 26.2459Z" fill="#0E918D"/>
<path d="M10.5247 22.6357L10.5239 26.2459C13.163 26.2459 15.3091 24.0998 15.3099 21.4607L11.7005 21.46C11.0513 21.46 10.5247 21.9865 10.5247 22.6357Z" fill="#0E918D"/>
<path d="M10.5237 35.2163H10.5229L10.5237 38.8241C10.5237 39.4733 11.0503 39.9999 11.7003 39.9999L15.3097 39.9991C15.3081 37.3616 13.162 35.2163 10.5237 35.2163Z" fill="#0E918D"/>
<path d="M25.2621 28.8892H25.2613C24.2465 28.8892 23.4207 29.7149 23.4199 30.7298C23.4199 31.7446 24.2457 32.5712 25.2605 32.5712C26.2504 32.592 27.122 31.7206 27.1027 30.7306C27.1027 29.7157 26.277 28.8892 25.2621 28.8892Z" fill="#0E918D"/>
<path d="M39.9989 28.5898C36.0677 28.5898 32.87 25.3922 32.8692 21.4609H17.6536C17.6528 25.3914 14.456 28.5891 10.5255 28.5898L10.5239 32.8727C14.4513 32.8727 17.6474 36.0648 17.6536 39.9914C17.6536 39.9914 32.0091 39.9977 32.8692 39.9977C32.8716 36.0695 36.0677 32.8742 39.9966 32.8727L39.9989 28.5898ZM28.2192 33.6906C27.4291 34.4801 26.3776 34.9152 25.2599 34.9148C22.9528 34.9141 21.0755 33.0359 21.0763 30.7289C21.0778 28.4219 22.9552 26.5453 25.2614 26.5453C27.5118 26.498 29.4929 28.4821 29.4466 30.7313C29.4458 31.8492 29.0099 32.9 28.2192 33.6906Z" fill="#0E918D"/>
<path d="M35.2129 39.9991L38.8223 39.9999C39.4723 39.9999 39.9988 39.4733 39.9988 38.8241L39.9996 35.2163H39.9988C37.3605 35.2163 35.2145 37.3616 35.2129 39.9991Z" fill="#0E918D"/>
<path d="M26.9309 15.836H25.3668V11.4242C25.3668 5.18363 20.3614 0.0406684 14.1262 0.00082471C14.1122 4.34615e-05 14.0981 4.34614e-05 14.0841 4.34614e-05C7.83016 -0.017144 2.73642 5.06566 2.73642 11.3149C2.73595 11.8171 3.14431 12.2255 3.64657 12.225H6.86063C7.36297 12.225 7.77079 11.8172 7.77079 11.3149C7.77079 7.85237 10.5887 5.03441 14.0528 5.03441H14.1262C17.5778 5.07503 20.3325 7.94143 20.3325 11.3946V15.836H1.17236C0.525487 15.836 0.000488281 16.361 0.000488281 17.0078V38.8281C0.000488281 39.475 0.525487 40 1.17236 40H8.3825C8.25125 39.6328 8.18016 39.2367 8.18016 38.825L8.18094 22.6359C8.18094 20.6945 9.76062 19.1164 11.7012 19.1164L28.1028 19.1172V17.0078C28.1028 16.361 27.5778 15.836 26.9309 15.836Z" fill="#0E918D"/>
</g>
<defs>
<clipPath id="clip0_84_316">
<rect width="40" height="40" fill="white"/>
</clipPath>
</defs>
</svg>
